solid solidname
 facet normal 4.27915e-08 1.59697e-07 1
  outer loop
    vertex 0.0274415 2.44239 1
    vertex 0.21686 2.39164 1
    vertex 2.3368 8.54183 1
  endloop
 endfacet
 facet normal -4.2876e-08 1.60022e-07 1
  outer loop
    vertex 0.0274415 0.226574 1
    vertex 1.70558 -8.26327 1
    vertex 0.21686 0.277328 1
  endloop
 endfacet
 facet normal 6.67612e-08 1.79133e-07 1
  outer loop
    vertex 0.21686 0.277328 1
    vertex 1.70558 -8.26327 1
    vertex 2.18897 -8.44343 1
  endloop
 endfacet
 facet normal 4.03503e-08 1.7316e-07 1
  outer loop
    vertex 0.21686 0.277328 1
    vertex 2.18897 -8.44343 1
    vertex 2.69137 -8.5605 1
  endloop
 endfacet
 facet normal -1.63715e-07 1.63411e-07 1
  outer loop
    vertex 0.446081 -7.37855 1
    vertex 0.826973 -7.72646 1
    vertex 0.0274415 0.226574 1
  endloop
 endfacet
 facet normal 1.35948e-07 1.93537e-07 1
  outer loop
    vertex 0.0274415 0.226574 1
    vertex 0.826973 -7.72646 1
    vertex 1.2491 -8.02298 1
  endloop
 endfacet
 facet normal 9.89998e-08 1.88065e-07 1
  outer loop
    vertex 0.0274415 0.226574 1
    vertex 1.2491 -8.02298 1
    vertex 1.70558 -8.26327 1
  endloop
 endfacet
 facet normal -1.54248e-08 1.76306e-07 1
  outer loop
    vertex -0.167912 0.209483 1
    vertex -0.167912 -6.55203 1
    vertex 0.0274415 0.226574 1
  endloop
 endfacet
 facet normal 2.59809e-07 1.68374e-07 1
  outer loop
    vertex 0.0274415 0.226574 1
    vertex -0.167912 -6.55203 1
    vertex 0.112639 -6.98494 1
  endloop
 endfacet
 facet normal -1.64672e-07 1.63359e-07 1
  outer loop
    vertex 0.0274415 0.226574 1
    vertex 0.112639 -6.98494 1
    vertex 0.446081 -7.37855 1
  endloop
 endfacet
 facet normal 1.54252e-08 1.76306e-07 1
  outer loop
    vertex -0.167912 0.209483 1
    vertex -0.363267 0.226574 1
    vertex -0.167912 -6.55203 1
  endloop
 endfacet
 facet normal 4.74877e-08 1.7723e-07 1
  outer loop
    vertex -0.167912 -6.55203 1
    vertex -0.363267 0.226574 1
    vertex -0.552685 0.277328 1
  endloop
 endfacet
 facet normal 2.50376e-09 1.74695e-07 1
  outer loop
    vertex -0.167912 -6.55203 1
    vertex -0.552685 0.277328 1
    vertex -3.25427 -1.04872 1
  endloop
 endfacet
 facet normal -3.00972e-07 7.92972e-07 1
  outer loop
    vertex -3.25427 -1.04872 1
    vertex -0.552685 0.277328 1
    vertex -0.730412 0.360204 1
  endloop
 endfacet
 facet normal 2.00292e-08 1.67543e-07 1
  outer loop
    vertex 2.3368 8.54183 1
    vertex 0.21686 2.39164 1
    vertex 3.15694 8.44379 1
  endloop
 endfacet
 facet normal 6.73964e-08 1.44533e-07 1
  outer loop
    vertex 3.15694 8.44379 1
    vertex 0.21686 2.39164 1
    vertex 0.394588 2.30876 1
  endloop
 endfacet
 facet normal -3.35139e-08 1.89968e-07 1
  outer loop
    vertex 3.15694 8.44379 1
    vertex 0.394588 2.30876 1
    vertex 3.96498 8.27258 1
  endloop
 endfacet
 facet normal -3.47351e-07 4.98887e-07 1
  outer loop
    vertex 0.693888 2.05762 1
    vertex 0.806366 1.89698 1
    vertex 3.15709 4.25053 1
  endloop
 endfacet
 facet normal 1.03714e-07 4.8363e-08 1
  outer loop
    vertex 3.15709 4.25053 1
    vertex 0.806366 1.89698 1
    vertex 0.889242 1.71925 1
  endloop
 endfacet
 facet normal -4.19341e-07 5.16984e-07 1
  outer loop
    vertex 3.15709 4.25053 1
    vertex 0.889242 1.71925 1
    vertex 0.939996 1.52984 1
  endloop
 endfacet
 facet normal 7.88419e-08 1.12598e-07 1
  outer loop
    vertex -0.730412 0.360204 1
    vertex -0.891048 0.472682 1
    vertex -3.25427 -1.04872 1
  endloop
 endfacet
 facet normal 9.20622e-08 9.20628e-08 1
  outer loop
    vertex -3.25427 -1.04872 1
    vertex -0.891048 0.472682 1
    vertex -1.02971 0.611346 1
  endloop
 endfacet
 facet normal -4.78527e-08 2.79554e-07 1
  outer loop
    vertex -3.25427 -1.04872 1
    vertex -1.02971 0.611346 1
    vertex -3.73044 -0.277378 1
  endloop
 endfacet
 facet normal -1.62598e-07 6.28252e-07 1
  outer loop
    vertex -1.02971 0.611346 1
    vertex -1.14219 0.771983 1
    vertex -3.73044 -0.277378 1
  endloop
 endfacet
 facet normal 7.74696e-08 3.61248e-08 1
  outer loop
    vertex -3.73044 -0.277378 1
    vertex -1.14219 0.771983 1
    vertex -1.22507 0.949709 1
  endloop
 endfacet
 facet normal 1.10404e-08 1.71755e-07 1
  outer loop
    vertex -3.73044 -0.277378 1
    vertex -1.22507 0.949709 1
    vertex -4.26958 0.451345 1
  endloop
 endfacet
 facet normal 3.75102e-08 1.00507e-08 1
  outer loop
    vertex -4.26958 0.451345 1
    vertex -1.22507 0.949709 1
    vertex -1.27582 1.13913 1
  endloop
 endfacet
 facet normal -3.31244e-10 1.74766e-07 1
  outer loop
    vertex -4.26958 0.451345 1
    vertex -1.27582 1.13913 1
    vertex -4.8679 1.13232 1
  endloop
 endfacet
 facet normal 0 0 1
  outer loop
    vertex -4.8679 1.13232 1
    vertex -1.27582 1.13913 1
    vertex -1.29291 1.33448 1
  endloop
 endfacet
 facet normal -1.01314e-08 1.7916e-07 1
  outer loop
    vertex -4.8679 1.13232 1
    vertex -1.29291 1.33448 1
    vertex -5.52119 1.76076 1
  endloop
 endfacet
 facet normal -2.79469e-08 2.4451e-09 1
  outer loop
    vertex -5.52119 1.76076 1
    vertex -1.29291 1.33448 1
    vertex -1.27582 1.52984 1
  endloop
 endfacet
 facet normal -1.79347e-08 1.86517e-07 1
  outer loop
    vertex -5.52119 1.76076 1
    vertex -1.27582 1.52984 1
    vertex -6.22484 2.33223 1
  endloop
 endfacet
 facet normal -1.52764e-08 1.74616e-07 1
  outer loop
    vertex -0.167912 2.45948 1
    vertex -0.932207 8.19552 1
    vertex -0.363267 2.44239 1
  endloop
 endfacet
 facet normal 1.54157e-08 1.77651e-07 1
  outer loop
    vertex -0.363267 2.44239 1
    vertex -0.932207 8.19552 1
    vertex -1.7136 7.92781 1
  endloop
 endfacet
 facet normal -4.37029e-08 1.63098e-07 1
  outer loop
    vertex -0.363267 2.44239 1
    vertex -1.7136 7.92781 1
    vertex -0.552685 2.39164 1
  endloop
 endfacet
 facet normal -7.03206e-08 1.57516e-07 1
  outer loop
    vertex -0.552685 2.39164 1
    vertex -1.7136 7.92781 1
    vertex -2.46784 7.59109 1
  endloop
 endfacet
 facet normal -7.29922e-08 1.56532e-07 1
  outer loop
    vertex -0.552685 2.39164 1
    vertex -2.46784 7.59109 1
    vertex -0.730412 2.30876 1
  endloop
 endfacet
 facet normal 5.0762e-09 1.73977e-07 1
  outer loop
    vertex 2.3368 8.54183 1
    vertex 1.51117 8.56592 1
    vertex 0.0274415 2.44239 1
  endloop
 endfacet
 facet normal -1.07959e-08 1.77823e-07 1
  outer loop
    vertex 0.0274415 2.44239 1
    vertex 1.51117 8.56592 1
    vertex 0.686701 8.51587 1
  endloop
 endfacet
 facet normal 1.5309e-08 1.74989e-07 1
  outer loop
    vertex 0.0274415 2.44239 1
    vertex 0.686701 8.51587 1
    vertex -0.167912 2.45948 1
  endloop
 endfacet
 facet normal -2.74424e-08 1.81022e-07 1
  outer loop
    vertex -0.167912 2.45948 1
    vertex 0.686701 8.51587 1
    vertex -0.129951 8.39207 1
  endloop
 endfacet
 facet normal 3.00375e-08 1.80654e-07 1
  outer loop
    vertex -0.167912 2.45948 1
    vertex -0.129951 8.39207 1
    vertex -0.932207 8.19552 1
  endloop
 endfacet
 facet normal 0 0 1
  outer loop
    vertex 2.76051 -8.56592 1
    vertex 2.82954 -8.55932 1
    vertex 2.69137 -8.5605 1
  endloop
 endfacet
 facet normal 0 -0 1
  outer loop
    vertex 2.69137 -8.5605 1
    vertex 2.82954 -8.55932 1
    vertex 2.89639 -8.54089 1
  endloop
 endfacet
 facet normal 0 -0 1
  outer loop
    vertex 2.69137 -8.5605 1
    vertex 2.89639 -8.54089 1
    vertex 2.95906 -8.5112 1
  endloop
 endfacet
 facet normal 0 0 1
  outer loop
    vertex 2.95906 -8.5112 1
    vertex 3.01565 -8.47113 1
    vertex 2.69137 -8.5605 1
  endloop
 endfacet
 facet normal 0 -0 1
  outer loop
    vertex 2.69137 -8.5605 1
    vertex 3.01565 -8.47113 1
    vertex 3.06448 -8.42188 1
  endloop
 endfacet
 facet normal 0 -0 1
  outer loop
    vertex 2.69137 -8.5605 1
    vertex 3.06448 -8.42188 1
    vertex 3.10407 -8.36495 1
  endloop
 endfacet
 facet normal 7.47536e-08 6.09316e-07 1
  outer loop
    vertex -1.22507 1.71925 1
    vertex -6.4427 2.55502 1
    vertex -1.27582 1.52984 1
  endloop
 endfacet
 facet normal -5.53124e-08 -4.62103e-08 1
  outer loop
    vertex -1.27582 1.52984 1
    vertex -6.4427 2.55502 1
    vertex -6.3425 2.43509 1
  endloop
 endfacet
 facet normal -5.9144e-08 -6.76554e-08 1
  outer loop
    vertex -1.27582 1.52984 1
    vertex -6.3425 2.43509 1
    vertex -6.22484 2.33223 1
  endloop
 endfacet
 facet normal 5.44205e-08 1.9844e-07 1
  outer loop
    vertex -2.46784 7.59109 1
    vertex -3.18883 7.18809 1
    vertex -0.730412 2.30876 1
  endloop
 endfacet
 facet normal 4.30929e-08 1.92733e-07 1
  outer loop
    vertex -0.730412 2.30876 1
    vertex -3.18883 7.18809 1
    vertex -3.87077 6.72204 1
  endloop
 endfacet
 facet normal -7.57434e-08 1.08172e-07 1
  outer loop
    vertex -0.730412 2.30876 1
    vertex -3.87077 6.72204 1
    vertex -0.891048 2.19628 1
  endloop
 endfacet
 facet normal -8.44367e-08 1.02449e-07 1
  outer loop
    vertex -0.891048 2.19628 1
    vertex -3.87077 6.72204 1
    vertex -4.50817 6.19671 1
  endloop
 endfacet
 facet normal -9.38954e-08 9.38961e-08 1
  outer loop
    vertex -0.891048 2.19628 1
    vertex -4.50817 6.19671 1
    vertex -1.02971 2.05762 1
  endloop
 endfacet
 facet normal 1.94221e-07 1.69922e-08 1
  outer loop
    vertex 0.939996 1.52984 1
    vertex 0.957088 1.33448 1
    vertex 3.15709 4.25053 1
  endloop
 endfacet
 facet normal 2.45176e-07 -2.14501e-08 1
  outer loop
    vertex 3.15709 4.25053 1
    vertex 0.957088 1.33448 1
    vertex 0.939996 1.13913 1
  endloop
 endfacet
 facet normal -2.7452e-08 1.72816e-07 1
  outer loop
    vertex 3.15709 4.25053 1
    vertex 0.939996 1.13913 1
    vertex 3.15709 -8.16594 1
  endloop
 endfacet
 facet normal -3.54311e-07 9.49364e-08 1
  outer loop
    vertex 3.15709 -8.16594 1
    vertex 0.939996 1.13913 1
    vertex 0.889242 0.949709 1
  endloop
 endfacet
 facet normal -2.56027e-07 1.19388e-07 1
  outer loop
    vertex 0.889242 0.949709 1
    vertex 0.806366 0.771983 1
    vertex 3.15709 -8.16594 1
  endloop
 endfacet
 facet normal 5.76592e-07 3.38372e-07 1
  outer loop
    vertex 3.15709 -8.16594 1
    vertex 0.806366 0.771983 1
    vertex 0.693888 0.611346 1
  endloop
 endfacet
 facet normal -1.37869e-07 1.3787e-07 1
  outer loop
    vertex 3.15709 -8.16594 1
    vertex 0.693888 0.611346 1
    vertex 0.555223 0.472682 1
  endloop
 endfacet
 facet normal 1.28434e-07 2.8074e-07 1
  outer loop
    vertex -4.50817 6.19671 1
    vertex -5.09588 5.61633 1
    vertex -1.02971 2.05762 1
  endloop
 endfacet
 facet normal -6.73979e-08 5.69831e-08 1
  outer loop
    vertex -1.02971 2.05762 1
    vertex -5.09588 5.61633 1
    vertex -5.62917 4.98557 1
  endloop
 endfacet
 facet normal 2.55053e-07 5.63514e-07 1
  outer loop
    vertex -1.02971 2.05762 1
    vertex -5.62917 4.98557 1
    vertex -1.14219 1.89698 1
  endloop
 endfacet
 facet normal 7.41086e-08 3.00645e-07 1
  outer loop
    vertex -1.14219 1.89698 1
    vertex -5.62917 4.98557 1
    vertex -6.10373 4.30953 1
  endloop
 endfacet
 facet normal -5.87573e-08 2.7399e-08 1
  outer loop
    vertex -1.14219 1.89698 1
    vertex -6.10373 4.30953 1
    vertex -1.22507 1.71925 1
  endloop
 endfacet
 facet normal -5.61473e-08 3.23147e-08 1
  outer loop
    vertex -1.22507 1.71925 1
    vertex -6.10373 4.30953 1
    vertex -6.51575 3.59364 1
  endloop
 endfacet
 facet normal -5.88088e-08 2.48025e-08 1
  outer loop
    vertex -1.22507 1.71925 1
    vertex -6.51575 3.59364 1
    vertex -6.57648 3.44964 1
  endloop
 endfacet
 facet normal 2.17076e-07 -9.48367e-08 1
  outer loop
    vertex 3.19206 4.46086 1
    vertex 3.23488 4.55888 1
    vertex 0.555223 2.19628 1
  endloop
 endfacet
 facet normal 3.12857e-07 -2.03472e-07 1
  outer loop
    vertex 0.555223 2.19628 1
    vertex 3.23488 4.55888 1
    vertex 3.2932 4.64855 1
  endloop
 endfacet
 facet normal -2.86984e-07 3.66249e-07 1
  outer loop
    vertex 3.36544 4.72745 1
    vertex 3.44964 4.79342 1
    vertex 5.51887 7.71677 1
  endloop
 endfacet
 facet normal -1.4523e-07 2.65912e-07 1
  outer loop
    vertex 5.51887 7.71677 1
    vertex 3.44964 4.79342 1
    vertex 3.54352 4.8447 1
  endloop
 endfacet
 facet normal -7.60348e-08 2.1832e-07 1
  outer loop
    vertex 3.54352 4.8447 1
    vertex 3.64454 4.87988 1
    vertex 5.51887 7.71677 1
  endloop
 endfacet
 facet normal -3.26264e-08 1.89641e-07 1
  outer loop
    vertex 5.51887 7.71677 1
    vertex 3.64454 4.87988 1
    vertex 3.74996 4.89801 1
  endloop
 endfacet
 facet normal -5.64954e-08 2.0462e-07 1
  outer loop
    vertex 5.51887 7.71677 1
    vertex 3.74996 4.89801 1
    vertex 6.25219 7.33665 1
  endloop
 endfacet
 facet normal 0 0 1
  outer loop
    vertex 3.10407 -8.36495 1
    vertex 3.13322 -8.30203 1
    vertex 2.69137 -8.5605 1
  endloop
 endfacet
 facet normal 0 -0 1
  outer loop
    vertex 2.69137 -8.5605 1
    vertex 3.13322 -8.30203 1
    vertex 3.15108 -8.23502 1
  endloop
 endfacet
 facet normal -9.56419e-08 1.35083e-07 1
  outer loop
    vertex 2.69137 -8.5605 1
    vertex 3.15108 -8.23502 1
    vertex 0.21686 0.277328 1
  endloop
 endfacet
 facet normal -3.89269e-07 3.38698e-08 1
  outer loop
    vertex 0.21686 0.277328 1
    vertex 3.15108 -8.23502 1
    vertex 3.15709 -8.16594 1
  endloop
 endfacet
 facet normal 5.09072e-07 3.46702e-07 1
  outer loop
    vertex 0.21686 0.277328 1
    vertex 3.15709 -8.16594 1
    vertex 0.394588 0.360204 1
  endloop
 endfacet
 facet normal -1.03736e-07 1.48151e-07 1
  outer loop
    vertex 0.394588 0.360204 1
    vertex 3.15709 -8.16594 1
    vertex 0.555223 0.472682 1
  endloop
 endfacet
 facet normal 1.73385e-07 7.42887e-07 1
  outer loop
    vertex -6.57648 3.44964 1
    vertex -6.61403 3.29794 1
    vertex -1.22507 1.71925 1
  endloop
 endfacet
 facet normal -4.31493e-08 3.72993e-09 1
  outer loop
    vertex -1.22507 1.71925 1
    vertex -6.61403 3.29794 1
    vertex -6.62749 3.14224 1
  endloop
 endfacet
 facet normal 1.60248e-07 7.75937e-07 1
  outer loop
    vertex -1.22507 1.71925 1
    vertex -6.62749 3.14224 1
    vertex -6.61653 2.98634 1
  endloop
 endfacet
 facet normal 5.12054e-08 5.12057e-08 1
  outer loop
    vertex 0.693888 2.05762 1
    vertex 3.15709 4.25053 1
    vertex 0.555223 2.19628 1
  endloop
 endfacet
 facet normal -8.4641e-07 1.18811e-06 1
  outer loop
    vertex 0.555223 2.19628 1
    vertex 3.15709 4.25053 1
    vertex 3.16589 4.35714 1
  endloop
 endfacet
 facet normal 1.73142e-07 -4.36812e-08 1
  outer loop
    vertex 0.555223 2.19628 1
    vertex 3.16589 4.35714 1
    vertex 3.19206 4.46086 1
  endloop
 endfacet
 facet normal -2.33778e-08 -5.39134e-09 1
  outer loop
    vertex -6.61653 2.98634 1
    vertex -6.58141 2.83406 1
    vertex -1.22507 1.71925 1
  endloop
 endfacet
 facet normal -2.42934e-08 -9.7904e-09 1
  outer loop
    vertex -1.22507 1.71925 1
    vertex -6.58141 2.83406 1
    vertex -6.52299 2.6891 1
  endloop
 endfacet
 facet normal -2.52713e-08 -1.51325e-08 1
  outer loop
    vertex -1.22507 1.71925 1
    vertex -6.52299 2.6891 1
    vertex -6.4427 2.55502 1
  endloop
 endfacet
 facet normal 4.41604e-08 1.43467e-07 1
  outer loop
    vertex 3.96498 8.27258 1
    vertex 0.394588 2.30876 1
    vertex 4.75441 8.02958 1
  endloop
 endfacet
 facet normal 8.08685e-08 1.15491e-07 1
  outer loop
    vertex 4.75441 8.02958 1
    vertex 0.394588 2.30876 1
    vertex 0.555223 2.19628 1
  endloop
 endfacet
 facet normal -5.32175e-09 1.77537e-07 1
  outer loop
    vertex 4.75441 8.02958 1
    vertex 0.555223 2.19628 1
    vertex 5.51887 7.71677 1
  endloop
 endfacet
 facet normal -1.23825e-07 2.84087e-07 1
  outer loop
    vertex 5.51887 7.71677 1
    vertex 0.555223 2.19628 1
    vertex 3.2932 4.64855 1
  endloop
 endfacet
 facet normal 6.92035e-06 -4.82572e-06 1
  outer loop
    vertex 5.51887 7.71677 1
    vertex 3.2932 4.64855 1
    vertex 3.36544 4.72745 1
  endloop
 endfacet
 facet normal 7.92637e-08 6.32499e-08 1
  outer loop
    vertex 6.49706 7.10961 1
    vertex 6.42711 7.19727 1
    vertex 3.74996 4.89801 1
  endloop
 endfacet
 facet normal 6.93484e-08 7.47947e-08 1
  outer loop
    vertex 3.74996 4.89801 1
    vertex 6.42711 7.19727 1
    vertex 6.34487 7.27351 1
  endloop
 endfacet
 facet normal 5.87976e-08 8.63201e-08 1
  outer loop
    vertex 3.74996 4.89801 1
    vertex 6.34487 7.27351 1
    vertex 6.25219 7.33665 1
  endloop
 endfacet
 facet normal 0 -0 1
  outer loop
    vertex 6.05747 5.08471 1
    vertex 6.17534 5.12448 1
    vertex 6.46803 5.35045 1
  endloop
 endfacet
 facet normal 0 0 1
  outer loop
    vertex 6.46803 5.35045 1
    vertex 6.17534 5.12448 1
    vertex 6.28502 5.18318 1
  endloop
 endfacet
 facet normal 0 0 1
  outer loop
    vertex 6.46803 5.35045 1
    vertex 6.28502 5.18318 1
    vertex 6.38349 5.2592 1
  endloop
 endfacet
 facet normal 0 0 1
  outer loop
    vertex 6.05747 5.08471 1
    vertex 6.46803 5.35045 1
    vertex 5.93464 5.06498 1
  endloop
 endfacet
 facet normal 0 -0 1
  outer loop
    vertex 5.93464 5.06498 1
    vertex 6.46803 5.35045 1
    vertex 6.53633 5.45443 1
  endloop
 endfacet
 facet normal 0 -0 1
  outer loop
    vertex 5.93464 5.06498 1
    vertex 6.53633 5.45443 1
    vertex 6.58651 5.56826 1
  endloop
 endfacet
 facet normal -9.49989e-07 1.23044e-06 1
  outer loop
    vertex 6.58651 5.56826 1
    vertex 6.61717 5.68882 1
    vertex 5.93464 5.06498 1
  endloop
 endfacet
 facet normal 1.89036e-07 -1.57313e-08 1
  outer loop
    vertex 5.93464 5.06498 1
    vertex 6.61717 5.68882 1
    vertex 6.62749 5.8128 1
  endloop
 endfacet
 facet normal -1.3111e-08 1.71557e-07 1
  outer loop
    vertex 5.93464 5.06498 1
    vertex 6.62749 5.8128 1
    vertex 3.74996 4.89801 1
  endloop
 endfacet
 facet normal -1.92517e-09 1.3637e-07 1
  outer loop
    vertex 3.74996 4.89801 1
    vertex 6.62749 5.8128 1
    vertex 6.62749 6.68695 1
  endloop
 endfacet
 facet normal 7.91656e-08 5.93491e-09 1
  outer loop
    vertex 3.74996 4.89801 1
    vertex 6.62749 6.68695 1
    vertex 6.61911 6.79878 1
  endloop
 endfacet
 facet normal 7.21782e-08 1.64822e-08 1
  outer loop
    vertex 6.61911 6.79878 1
    vertex 6.59414 6.90811 1
    vertex 3.74996 4.89801 1
  endloop
 endfacet
 facet normal -5.66157e-07 9.19691e-07 1
  outer loop
    vertex 3.74996 4.89801 1
    vertex 6.59414 6.90811 1
    vertex 6.55315 7.0125 1
  endloop
 endfacet
 facet normal 8.88593e-08 5.13308e-08 1
  outer loop
    vertex 3.74996 4.89801 1
    vertex 6.55315 7.0125 1
    vertex 6.49706 7.10961 1
  endloop
 endfacet
 facet normal -2.83622e-13 -1.78814e-07 -1
  outer loop
    vertex -0.932207 8.19552 1.151e-07
    vertex -0.167912 2.45948 1.14078e-06
    vertex -0.363267 2.44239 1.14384e-06
  endloop
 endfacet
 facet normal 3.22663e-13 -1.78814e-07 -1
  outer loop
    vertex 0.394588 2.30876 1.16773e-06
    vertex 4.75441 8.02958 1.44771e-07
    vertex 0.555223 2.19628 1.18785e-06
  endloop
 endfacet
 facet normal 2.95399e-13 -1.78814e-07 -1
  outer loop
    vertex 0.555223 2.19628 1.18785e-06
    vertex 4.75441 8.02958 1.44771e-07
    vertex 5.51887 7.71677 2.00707e-07
  endloop
 endfacet
 facet normal -3.12806e-13 -1.78814e-07 -1
  outer loop
    vertex 0.555223 2.19628 1.18785e-06
    vertex 5.51887 7.71677 2.00707e-07
    vertex 0.693888 2.05762 1.21264e-06
  endloop
 endfacet
 facet normal -3.44691e-13 -1.78814e-07 -1
  outer loop
    vertex 0.21686 2.39164 1.15291e-06
    vertex 3.15694 8.44379 7.07057e-08
    vertex 0.394588 2.30876 1.16773e-06
  endloop
 endfacet
 facet normal -7.85086e-15 -1.78814e-07 -1
  outer loop
    vertex 0.394588 2.30876 1.16773e-06
    vertex 3.15694 8.44379 7.07057e-08
    vertex 3.96498 8.27258 1.0132e-07
  endloop
 endfacet
 facet normal -1.32535e-13 -1.78814e-07 -1
  outer loop
    vertex 0.394588 2.30876 1.16773e-06
    vertex 3.96498 8.27258 1.0132e-07
    vertex 4.75441 8.02958 1.44771e-07
  endloop
 endfacet
 facet normal -1.28592e-13 -1.78814e-07 -1
  outer loop
    vertex -0.932207 8.19552 1.151e-07
    vertex -0.129951 8.39207 7.99541e-08
    vertex -0.167912 2.45948 1.14078e-06
  endloop
 endfacet
 facet normal 8.8081e-15 -1.78814e-07 -1
  outer loop
    vertex -0.167912 2.45948 1.14078e-06
    vertex -0.129951 8.39207 7.99541e-08
    vertex 0.686701 8.51587 5.78166e-08
  endloop
 endfacet
 facet normal 3.7967e-13 -1.78814e-07 -1
  outer loop
    vertex -0.167912 2.45948 1.14078e-06
    vertex 0.686701 8.51587 5.78166e-08
    vertex 0.0274415 2.44239 1.14384e-06
  endloop
 endfacet
 facet normal 1.42841e-13 -1.78814e-07 -1
  outer loop
    vertex 0.0274415 2.44239 1.14384e-06
    vertex 0.686701 8.51587 5.78166e-08
    vertex 1.51117 8.56592 4.88662e-08
  endloop
 endfacet
 facet normal 0 -1.78814e-07 -1
  outer loop
    vertex 0.0274415 2.44239 1.14384e-06
    vertex 1.51117 8.56592 4.88662e-08
    vertex 0.21686 2.39164 1.15291e-06
  endloop
 endfacet
 facet normal -1.38538e-15 -1.78814e-07 -1
  outer loop
    vertex 0.21686 2.39164 1.15291e-06
    vertex 1.51117 8.56592 4.88662e-08
    vertex 2.3368 8.54183 5.31738e-08
  endloop
 endfacet
 facet normal -6.76464e-15 -1.78814e-07 -1
  outer loop
    vertex 0.21686 2.39164 1.15291e-06
    vertex 2.3368 8.54183 5.31738e-08
    vertex 3.15694 8.44379 7.07057e-08
  endloop
 endfacet
 facet normal 1.38504e-14 -1.78814e-07 -1
  outer loop
    vertex 0.957088 1.33448 1.34195e-06
    vertex 0.939996 1.52984 1.30702e-06
    vertex 3.2932 4.64855 7.49347e-07
  endloop
 endfacet
 facet normal -2.82322e-13 -1.78814e-07 -1
  outer loop
    vertex 3.2932 4.64855 7.49347e-07
    vertex 0.939996 1.52984 1.30702e-06
    vertex 0.889242 1.71925 1.27315e-06
  endloop
 endfacet
 facet normal 0 -1.78814e-07 -1
  outer loop
    vertex 3.2932 4.64855 7.49347e-07
    vertex 0.889242 1.71925 1.27315e-06
    vertex 0.806366 1.89698 1.24137e-06
  endloop
 endfacet
 facet normal -2.14068e-13 -1.78814e-07 -1
  outer loop
    vertex -0.891048 2.19628 1.18785e-06
    vertex -3.87077 6.72204 3.78578e-07
    vertex -0.730412 2.30876 1.16773e-06
  endloop
 endfacet
 facet normal -4.44768e-14 -1.78814e-07 -1
  outer loop
    vertex -0.730412 2.30876 1.16773e-06
    vertex -3.87077 6.72204 3.78578e-07
    vertex -3.18883 7.18809 2.95242e-07
  endloop
 endfacet
 facet normal 0 -1.78814e-07 -1
  outer loop
    vertex -0.730412 2.30876 1.16773e-06
    vertex -3.18883 7.18809 2.95242e-07
    vertex -0.552685 2.39164 1.15291e-06
  endloop
 endfacet
 facet normal -1.00594e-13 -1.78814e-07 -1
  outer loop
    vertex -0.552685 2.39164 1.15291e-06
    vertex -3.18883 7.18809 2.95242e-07
    vertex -2.46784 7.59109 2.23179e-07
  endloop
 endfacet
 facet normal -4.20254e-13 -1.78814e-07 -1
  outer loop
    vertex -0.552685 2.39164 1.15291e-06
    vertex -2.46784 7.59109 2.23179e-07
    vertex -0.363267 2.44239 1.14384e-06
  endloop
 endfacet
 facet normal 2.47578e-14 -1.78814e-07 -1
  outer loop
    vertex -0.363267 2.44239 1.14384e-06
    vertex -2.46784 7.59109 2.23179e-07
    vertex -1.7136 7.92781 1.6297e-07
  endloop
 endfacet
 facet normal 4.8921e-14 -1.78814e-07 -1
  outer loop
    vertex -0.363267 2.44239 1.14384e-06
    vertex -1.7136 7.92781 1.6297e-07
    vertex -0.932207 8.19552 1.151e-07
  endloop
 endfacet
 facet normal 1.06431e-13 -1.78814e-07 -1
  outer loop
    vertex -1.14219 1.89698 1.24137e-06
    vertex -5.62917 4.98557 6.89083e-07
    vertex -1.02971 2.05762 1.21264e-06
  endloop
 endfacet
 facet normal -6.36892e-14 -1.78814e-07 -1
  outer loop
    vertex -1.02971 2.05762 1.21264e-06
    vertex -5.62917 4.98557 6.89083e-07
    vertex -5.09588 5.61633 5.76295e-07
  endloop
 endfacet
 facet normal 2.15052e-13 -1.78814e-07 -1
  outer loop
    vertex -1.02971 2.05762 1.21264e-06
    vertex -5.09588 5.61633 5.76295e-07
    vertex -0.891048 2.19628 1.18785e-06
  endloop
 endfacet
 facet normal 3.19316e-14 -1.78814e-07 -1
  outer loop
    vertex -0.891048 2.19628 1.18785e-06
    vertex -5.09588 5.61633 5.76295e-07
    vertex -4.50817 6.19671 4.72515e-07
  endloop
 endfacet
 facet normal 7.6642e-14 -1.78814e-07 -1
  outer loop
    vertex -0.891048 2.19628 1.18785e-06
    vertex -4.50817 6.19671 4.72515e-07
    vertex -3.87077 6.72204 3.78578e-07
  endloop
 endfacet
 facet normal -1.41144e-14 -1.78814e-07 -1
  outer loop
    vertex -5.52119 1.76076 1.26573e-06
    vertex -1.27582 1.52984 1.30702e-06
    vertex -4.8679 1.13232 1.3781e-06
  endloop
 endfacet
 facet normal -1.53369e-14 -1.78814e-07 -1
  outer loop
    vertex -4.8679 1.13232 1.3781e-06
    vertex -1.27582 1.52984 1.30702e-06
    vertex -1.29291 1.33448 1.34195e-06
  endloop
 endfacet
 facet normal -1.52928e-14 -1.78814e-07 -1
  outer loop
    vertex -4.8679 1.13232 1.3781e-06
    vertex -1.29291 1.33448 1.34195e-06
    vertex -4.26958 0.451345 1.49987e-06
  endloop
 endfacet
 facet normal -1.78648e-14 -1.78814e-07 -1
  outer loop
    vertex -4.26958 0.451345 1.49987e-06
    vertex -1.29291 1.33448 1.34195e-06
    vertex -1.27582 1.13913 1.37688e-06
  endloop
 endfacet
 facet normal -5.56757e-15 -1.78814e-07 -1
  outer loop
    vertex -4.26958 0.451345 1.49987e-06
    vertex -1.27582 1.13913 1.37688e-06
    vertex -3.73044 -0.277378 1.63017e-06
  endloop
 endfacet
 facet normal 1.62943e-14 -1.78814e-07 -1
  outer loop
    vertex 0.21686 0.277328 1.53098e-06
    vertex 0.394588 0.360204 1.51616e-06
    vertex 3.15709 -8.16594 3.04076e-06
  endloop
 endfacet
 facet normal 2.53716e-14 -1.78814e-07 -1
  outer loop
    vertex 3.15709 -8.16594 3.04076e-06
    vertex 0.394588 0.360204 1.51616e-06
    vertex 0.555223 0.472682 1.49605e-06
  endloop
 endfacet
 facet normal -2.8264e-13 -1.78814e-07 -1
  outer loop
    vertex 3.15709 -8.16594 3.04076e-06
    vertex 0.555223 0.472682 1.49605e-06
    vertex 0.693888 0.611346 1.47126e-06
  endloop
 endfacet
 facet normal -9.49793e-14 -1.78814e-07 -1
  outer loop
    vertex -6.62749 3.14224 1.0187e-06
    vertex -6.61403 3.29794 9.90855e-07
    vertex -1.22507 1.71925 1.27315e-06
  endloop
 endfacet
 facet normal -3.97066e-14 -1.78814e-07 -1
  outer loop
    vertex -1.27582 1.13913 1.37688e-06
    vertex -1.22507 0.949709 1.41075e-06
    vertex -3.73044 -0.277378 1.63017e-06
  endloop
 endfacet
 facet normal -3.89717e-14 -1.78814e-07 -1
  outer loop
    vertex -3.73044 -0.277378 1.63017e-06
    vertex -1.22507 0.949709 1.41075e-06
    vertex -1.14219 0.771983 1.44253e-06
  endloop
 endfacet
 facet normal -2.27728e-14 -1.78814e-07 -1
  outer loop
    vertex -3.73044 -0.277378 1.63017e-06
    vertex -1.14219 0.771983 1.44253e-06
    vertex -3.25427 -1.04872 1.7681e-06
  endloop
 endfacet
 facet normal -4.57094e-14 -1.78814e-07 -1
  outer loop
    vertex -3.25427 -1.04872 1.7681e-06
    vertex -1.14219 0.771983 1.44253e-06
    vertex -1.02971 0.611346 1.47126e-06
  endloop
 endfacet
 facet normal 0 -1.78814e-07 -1
  outer loop
    vertex -0.552685 0.277328 1.53098e-06
    vertex -0.167912 -6.55203 2.75217e-06
    vertex -0.730412 0.360204 1.51616e-06
  endloop
 endfacet
 facet normal -2.4934e-14 -1.78814e-07 -1
  outer loop
    vertex -0.730412 0.360204 1.51616e-06
    vertex -0.167912 -6.55203 2.75217e-06
    vertex -3.25427 -1.04872 1.7681e-06
  endloop
 endfacet
 facet normal 0 -1.78814e-07 -1
  outer loop
    vertex -0.730412 0.360204 1.51616e-06
    vertex -3.25427 -1.04872 1.7681e-06
    vertex -0.891048 0.472682 1.49605e-06
  endloop
 endfacet
 facet normal 1.05528e-13 -1.78814e-07 -1
  outer loop
    vertex -0.891048 0.472682 1.49605e-06
    vertex -3.25427 -1.04872 1.7681e-06
    vertex -1.02971 0.611346 1.47126e-06
  endloop
 endfacet
 facet normal 0 -1.78814e-07 -1
  outer loop
    vertex 0.957088 1.33448 1.34195e-06
    vertex 3.2932 4.64855 7.49347e-07
    vertex 0.939996 1.13913 1.37688e-06
  endloop
 endfacet
 facet normal 6.3799e-11 -1.78857e-07 -1
  outer loop
    vertex 0.939996 1.13913 1.37688e-06
    vertex 3.2932 4.64855 7.49347e-07
    vertex 3.23488 4.55888 7.65382e-07
  endloop
 endfacet
 facet normal 0 -1.78814e-07 -1
  outer loop
    vertex 0.939996 1.13913 1.37688e-06
    vertex 3.23488 4.55888 7.65382e-07
    vertex 0.889242 0.949709 1.41075e-06
  endloop
 endfacet
 facet normal -7.91946e-12 -1.78809e-07 -1
  outer loop
    vertex 0.889242 0.949709 1.41075e-06
    vertex 3.23488 4.55888 7.65382e-07
    vertex 3.19206 4.46086 7.82909e-07
  endloop
 endfacet
 facet normal 2.70736e-12 -1.78816e-07 -1
  outer loop
    vertex 0.889242 0.949709 1.41075e-06
    vertex 3.19206 4.46086 7.82909e-07
    vertex 3.16589 4.35714 8.01456e-07
  endloop
 endfacet
 facet normal 6.16551e-14 -1.78814e-07 -1
  outer loop
    vertex 0.693888 0.611346 1.47126e-06
    vertex 0.806366 0.771983 1.44253e-06
    vertex 3.15709 -8.16594 3.04076e-06
  endloop
 endfacet
 facet normal 9.81309e-14 -1.78814e-07 -1
  outer loop
    vertex 3.15709 -8.16594 3.04076e-06
    vertex 0.806366 0.771983 1.44253e-06
    vertex 0.889242 0.949709 1.41075e-06
  endloop
 endfacet
 facet normal 1.29196e-13 -1.78814e-07 -1
  outer loop
    vertex 3.15709 -8.16594 3.04076e-06
    vertex 0.889242 0.949709 1.41075e-06
    vertex 3.15709 4.25053 8.20519e-07
  endloop
 endfacet
 facet normal 1.06893e-12 -1.78815e-07 -1
  outer loop
    vertex 3.15709 4.25053 8.20519e-07
    vertex 0.889242 0.949709 1.41075e-06
    vertex 3.16589 4.35714 8.01456e-07
  endloop
 endfacet
 facet normal 8.10375e-15 -1.78814e-07 -1
  outer loop
    vertex -6.61403 3.29794 9.90855e-07
    vertex -6.57648 3.44964 9.63728e-07
    vertex -1.22507 1.71925 1.27315e-06
  endloop
 endfacet
 facet normal 2.35309e-13 -1.78813e-07 -1
  outer loop
    vertex -1.22507 1.71925 1.27315e-06
    vertex -6.57648 3.44964 9.63728e-07
    vertex -6.51575 3.59364 9.37979e-07
  endloop
 endfacet
 facet normal 0 -1.78814e-07 -1
  outer loop
    vertex -1.22507 1.71925 1.27315e-06
    vertex -6.51575 3.59364 9.37979e-07
    vertex -1.14219 1.89698 1.24137e-06
  endloop
 endfacet
 facet normal 1.25043e-14 -1.78814e-07 -1
  outer loop
    vertex -1.14219 1.89698 1.24137e-06
    vertex -6.51575 3.59364 9.37979e-07
    vertex -6.10373 4.30953 8.09969e-07
  endloop
 endfacet
 facet normal -1.07392e-13 -1.78814e-07 -1
  outer loop
    vertex -1.14219 1.89698 1.24137e-06
    vertex -6.10373 4.30953 8.09969e-07
    vertex -5.62917 4.98557 6.89083e-07
  endloop
 endfacet
 facet normal -4.05188e-12 -1.78811e-07 -1
  outer loop
    vertex 3.44964 4.79342 7.23442e-07
    vertex 5.51887 7.71677 2.00707e-07
    vertex 3.54352 4.8447 7.14273e-07
  endloop
 endfacet
 facet normal 1.03053e-12 -1.78814e-07 -1
  outer loop
    vertex 3.54352 4.8447 7.14273e-07
    vertex 5.51887 7.71677 2.00707e-07
    vertex 3.64454 4.87988 7.07983e-07
  endloop
 endfacet
 facet normal -1.56948e-14 -1.78814e-07 -1
  outer loop
    vertex -5.52119 1.76076 1.26573e-06
    vertex -6.22484 2.33223 1.16354e-06
    vertex -1.27582 1.52984 1.30702e-06
  endloop
 endfacet
 facet normal -1.24239e-13 -1.78815e-07 -1
  outer loop
    vertex -1.27582 1.52984 1.30702e-06
    vertex -6.22484 2.33223 1.16354e-06
    vertex -6.3425 2.43509 1.14515e-06
  endloop
 endfacet
 facet normal 4.94578e-14 -1.78814e-07 -1
  outer loop
    vertex -1.27582 1.52984 1.30702e-06
    vertex -6.3425 2.43509 1.14515e-06
    vertex -1.22507 1.71925 1.27315e-06
  endloop
 endfacet
 facet normal 8.84845e-14 -1.78813e-07 -1
  outer loop
    vertex -1.22507 1.71925 1.27315e-06
    vertex -6.3425 2.43509 1.14515e-06
    vertex -6.4427 2.55502 1.1237e-06
  endloop
 endfacet
 facet normal -7.30217e-14 -1.78814e-07 -1
  outer loop
    vertex -1.22507 1.71925 1.27315e-06
    vertex -6.4427 2.55502 1.1237e-06
    vertex -6.52299 2.6891 1.09972e-06
  endloop
 endfacet
 facet normal 3.1436e-12 -1.78816e-07 -1
  outer loop
    vertex 3.44964 4.79342 7.23442e-07
    vertex 3.36544 4.72745 7.3524e-07
    vertex 5.51887 7.71677 2.00707e-07
  endloop
 endfacet
 facet normal 7.71359e-14 -1.78814e-07 -1
  outer loop
    vertex 5.51887 7.71677 2.00707e-07
    vertex 3.36544 4.72745 7.3524e-07
    vertex 3.2932 4.64855 7.49347e-07
  endloop
 endfacet
 facet normal 1.02944e-13 -1.78814e-07 -1
  outer loop
    vertex 5.51887 7.71677 2.00707e-07
    vertex 3.2932 4.64855 7.49347e-07
    vertex 0.693888 2.05762 1.21264e-06
  endloop
 endfacet
 facet normal 0 -1.78814e-07 -1
  outer loop
    vertex 0.693888 2.05762 1.21264e-06
    vertex 3.2932 4.64855 7.49347e-07
    vertex 0.806366 1.89698 1.24137e-06
  endloop
 endfacet
 facet normal 8.99045e-14 -1.78814e-07 -1
  outer loop
    vertex -6.52299 2.6891 1.09972e-06
    vertex -6.58141 2.83406 1.0738e-06
    vertex -1.22507 1.71925 1.27315e-06
  endloop
 endfacet
 facet normal -1.64703e-13 -1.78815e-07 -1
  outer loop
    vertex -1.22507 1.71925 1.27315e-06
    vertex -6.58141 2.83406 1.0738e-06
    vertex -6.61653 2.98634 1.04657e-06
  endloop
 endfacet
 facet normal 1.97702e-13 -1.78813e-07 -1
  outer loop
    vertex -1.22507 1.71925 1.27315e-06
    vertex -6.61653 2.98634 1.04657e-06
    vertex -6.62749 3.14224 1.0187e-06
  endloop
 endfacet
 facet normal -1.82183e-13 -1.78814e-07 -1
  outer loop
    vertex 0.0274415 0.226574 1.54006e-06
    vertex 1.2491 -8.02298 3.01519e-06
    vertex 0.826973 -7.72646 2.96217e-06
  endloop
 endfacet
 facet normal 4.1302e-13 -1.78814e-07 -1
  outer loop
    vertex 3.15709 -8.16594 3.04076e-06
    vertex 2.69137 -8.5605 3.11131e-06
    vertex 0.21686 0.277328 1.53098e-06
  endloop
 endfacet
 facet normal -4.86196e-13 -1.78814e-07 -1
  outer loop
    vertex 0.21686 0.277328 1.53098e-06
    vertex 2.69137 -8.5605 3.11131e-06
    vertex 2.18897 -8.44343 3.09038e-06
  endloop
 endfacet
 facet normal 5.19127e-13 -1.78814e-07 -1
  outer loop
    vertex 0.21686 0.277328 1.53098e-06
    vertex 2.18897 -8.44343 3.09038e-06
    vertex 0.0274415 0.226574 1.54006e-06
  endloop
 endfacet
 facet normal 1.12145e-13 -1.78814e-07 -1
  outer loop
    vertex 0.0274415 0.226574 1.54006e-06
    vertex 2.18897 -8.44343 3.09038e-06
    vertex 1.70558 -8.26327 3.05816e-06
  endloop
 endfacet
 facet normal 1.22783e-13 -1.78814e-07 -1
  outer loop
    vertex 0.0274415 0.226574 1.54006e-06
    vertex 1.70558 -8.26327 3.05816e-06
    vertex 1.2491 -8.02298 3.01519e-06
  endloop
 endfacet
 facet normal 2.95577e-13 -1.78814e-07 -1
  outer loop
    vertex -0.552685 0.277328 1.53098e-06
    vertex -0.363267 0.226574 1.54006e-06
    vertex -0.167912 -6.55203 2.75217e-06
  endloop
 endfacet
 facet normal -5.8634e-13 -1.78814e-07 -1
  outer loop
    vertex -0.167912 -6.55203 2.75217e-06
    vertex -0.363267 0.226574 1.54006e-06
    vertex -0.167912 0.209483 1.54311e-06
  endloop
 endfacet
 facet normal 0 -1.78814e-07 -1
  outer loop
    vertex -0.167912 -6.55203 2.75217e-06
    vertex -0.167912 0.209483 1.54311e-06
    vertex 0.112639 -6.98494 2.82958e-06
  endloop
 endfacet
 facet normal 5.84455e-13 -1.78814e-07 -1
  outer loop
    vertex 0.112639 -6.98494 2.82958e-06
    vertex -0.167912 0.209483 1.54311e-06
    vertex 0.0274415 0.226574 1.54006e-06
  endloop
 endfacet
 facet normal 3.83578e-13 -1.78814e-07 -1
  outer loop
    vertex 0.112639 -6.98494 2.82958e-06
    vertex 0.0274415 0.226574 1.54006e-06
    vertex 0.446081 -7.37855 2.89996e-06
  endloop
 endfacet
 facet normal -3.30595e-13 -1.78814e-07 -1
  outer loop
    vertex 0.446081 -7.37855 2.89996e-06
    vertex 0.0274415 0.226574 1.54006e-06
    vertex 0.826973 -7.72646 2.96217e-06
  endloop
 endfacet
 facet normal -3.79482e-13 -1.78814e-07 -1
  outer loop
    vertex 6.34487 7.27351 2.79967e-07
    vertex 6.42711 7.19727 2.93601e-07
    vertex 3.74996 4.89801 7.04739e-07
  endloop
 endfacet
 facet normal 1.2815e-12 -1.78815e-07 -1
  outer loop
    vertex 3.15709 -8.16594 3.04076e-06
    vertex 3.15108 -8.23502 3.05311e-06
    vertex 2.69137 -8.5605 3.11131e-06
  endloop
 endfacet
 facet normal -2.20323e-12 -1.7881e-07 -1
  outer loop
    vertex 2.69137 -8.5605 3.11131e-06
    vertex 3.15108 -8.23502 3.05311e-06
    vertex 3.13322 -8.30203 3.06509e-06
  endloop
 endfacet
 facet normal -5.47878e-13 -1.78813e-07 -1
  outer loop
    vertex 2.69137 -8.5605 3.11131e-06
    vertex 3.13322 -8.30203 3.06509e-06
    vertex 3.10407 -8.36495 3.07634e-06
  endloop
 endfacet
 facet normal 1.4163e-12 -1.78817e-07 -1
  outer loop
    vertex 3.10407 -8.36495 3.07634e-06
    vertex 3.06448 -8.42188 3.08652e-06
    vertex 2.69137 -8.5605 3.11131e-06
  endloop
 endfacet
 facet normal 3.19525e-12 -1.78822e-07 -1
  outer loop
    vertex 2.69137 -8.5605 3.11131e-06
    vertex 3.06448 -8.42188 3.08652e-06
    vertex 3.01565 -8.47113 3.09533e-06
  endloop
 endfacet
 facet normal 4.40657e-13 -1.78812e-07 -1
  outer loop
    vertex 2.69137 -8.5605 3.11131e-06
    vertex 3.01565 -8.47113 3.09533e-06
    vertex 2.95906 -8.5112 3.10249e-06
  endloop
 endfacet
 facet normal 1.96632e-12 -1.7882e-07 -1
  outer loop
    vertex 2.95906 -8.5112 3.10249e-06
    vertex 2.89639 -8.54089 3.1078e-06
    vertex 2.69137 -8.5605 3.11131e-06
  endloop
 endfacet
 facet normal 2.12102e-12 -1.78822e-07 -1
  outer loop
    vertex 2.69137 -8.5605 3.11131e-06
    vertex 2.89639 -8.54089 3.1078e-06
    vertex 2.82954 -8.55932 3.1111e-06
  endloop
 endfacet
 facet normal 2.09737e-12 -1.78819e-07 -1
  outer loop
    vertex 2.69137 -8.5605 3.11131e-06
    vertex 2.82954 -8.55932 3.1111e-06
    vertex 2.76051 -8.56592 3.11228e-06
  endloop
 endfacet
 facet normal 1.28666e-12 -1.78814e-07 -1
  outer loop
    vertex 3.64454 4.87988 7.07983e-07
    vertex 5.51887 7.71677 2.00707e-07
    vertex 3.74996 4.89801 7.04739e-07
  endloop
 endfacet
 facet normal -1.34875e-13 -1.78814e-07 -1
  outer loop
    vertex 3.74996 4.89801 7.04739e-07
    vertex 5.51887 7.71677 2.00707e-07
    vertex 6.25219 7.33665 2.68678e-07
  endloop
 endfacet
 facet normal 3.23811e-13 -1.78814e-07 -1
  outer loop
    vertex 3.74996 4.89801 7.04739e-07
    vertex 6.25219 7.33665 2.68678e-07
    vertex 6.34487 7.27351 2.79967e-07
  endloop
 endfacet
 facet normal -1.89858e-12 -1.78812e-07 -1
  outer loop
    vertex 6.61717 5.68882 5.63332e-07
    vertex 6.58651 5.56826 5.8489e-07
    vertex 5.93464 5.06498 6.74884e-07
  endloop
 endfacet
 facet normal -1.28489e-12 -1.78813e-07 -1
  outer loop
    vertex 6.17534 5.12448 6.64245e-07
    vertex 6.46803 5.35045 6.23837e-07
    vertex 6.28502 5.18318 6.53748e-07
  endloop
 endfacet
 facet normal 0 -1.78814e-07 -1
  outer loop
    vertex 6.28502 5.18318 6.53748e-07
    vertex 6.46803 5.35045 6.23837e-07
    vertex 6.38349 5.2592 6.40154e-07
  endloop
 endfacet
 facet normal 1.08862e-12 -1.78816e-07 -1
  outer loop
    vertex 6.58651 5.56826 5.8489e-07
    vertex 6.53633 5.45443 6.05245e-07
    vertex 5.93464 5.06498 6.74884e-07
  endloop
 endfacet
 facet normal -3.33435e-13 -1.78814e-07 -1
  outer loop
    vertex 5.93464 5.06498 6.74884e-07
    vertex 6.53633 5.45443 6.05245e-07
    vertex 6.46803 5.35045 6.23837e-07
  endloop
 endfacet
 facet normal -5.79144e-13 -1.78813e-07 -1
  outer loop
    vertex 5.93464 5.06498 6.74884e-07
    vertex 6.46803 5.35045 6.23837e-07
    vertex 6.05747 5.08471 6.71356e-07
  endloop
 endfacet
 facet normal 1.77657e-13 -1.78814e-07 -1
  outer loop
    vertex 6.05747 5.08471 6.71356e-07
    vertex 6.46803 5.35045 6.23837e-07
    vertex 6.17534 5.12448 6.64245e-07
  endloop
 endfacet
 facet normal -5.38968e-14 -1.78814e-07 -1
  outer loop
    vertex 6.42711 7.19727 2.93601e-07
    vertex 6.49706 7.10961 3.09275e-07
    vertex 3.74996 4.89801 7.04739e-07
  endloop
 endfacet
 facet normal -5.45422e-14 -1.78814e-07 -1
  outer loop
    vertex 3.74996 4.89801 7.04739e-07
    vertex 6.49706 7.10961 3.09275e-07
    vertex 6.55315 7.0125 3.2664e-07
  endloop
 endfacet
 facet normal 2.62272e-13 -1.78814e-07 -1
  outer loop
    vertex 3.74996 4.89801 7.04739e-07
    vertex 6.55315 7.0125 3.2664e-07
    vertex 6.59414 6.90811 3.45305e-07
  endloop
 endfacet
 facet normal -6.78784e-13 -1.78813e-07 -1
  outer loop
    vertex 6.59414 6.90811 3.45305e-07
    vertex 6.61911 6.79878 3.64855e-07
    vertex 3.74996 4.89801 7.04739e-07
  endloop
 endfacet
 facet normal 8.75535e-13 -1.78815e-07 -1
  outer loop
    vertex 3.74996 4.89801 7.04739e-07
    vertex 6.61911 6.79878 3.64855e-07
    vertex 6.62749 6.68695 3.84852e-07
  endloop
 endfacet
 facet normal 0 -1.78814e-07 -1
  outer loop
    vertex 3.74996 4.89801 7.04739e-07
    vertex 6.62749 6.68695 3.84852e-07
    vertex 5.93464 5.06498 6.74884e-07
  endloop
 endfacet
 facet normal -6.1005e-13 -1.78814e-07 -1
  outer loop
    vertex 5.93464 5.06498 6.74884e-07
    vertex 6.62749 6.68695 3.84852e-07
    vertex 6.62749 5.8128 5.41164e-07
  endloop
 endfacet
 facet normal 1.18152e-12 -1.78815e-07 -1
  outer loop
    vertex 5.93464 5.06498 6.74884e-07
    vertex 6.62749 5.8128 5.41164e-07
    vertex 6.61717 5.68882 5.63332e-07
  endloop
 endfacet
 facet normal -0.0781551 -0.996941 9.50758e-07
  outer loop
    vertex 2.69137 -8.5605 1
    vertex 2.69137 -8.5605 3.11131e-06
    vertex 2.76051 -8.56592 3.11228e-06
  endloop
 endfacet
 facet normal -0.0781687 -0.99694 0
  outer loop
    vertex 2.69137 -8.5605 1
    vertex 2.76051 -8.56592 3.11228e-06
    vertex 2.76051 -8.56592 1
  endloop
 endfacet
 facet normal 0.0951933 -0.995459 0
  outer loop
    vertex 2.76051 -8.56592 1
    vertex 2.76051 -8.56592 3.11228e-06
    vertex 2.82954 -8.55932 3.1111e-06
  endloop
 endfacet
 facet normal 0.0951933 -0.995459 0
  outer loop
    vertex 2.76051 -8.56592 1
    vertex 2.82954 -8.55932 3.1111e-06
    vertex 2.82954 -8.55932 1
  endloop
 endfacet
 facet normal 0.265696 -0.964057 0
  outer loop
    vertex 2.82954 -8.55932 1
    vertex 2.82954 -8.55932 3.1111e-06
    vertex 2.89639 -8.54089 3.1078e-06
  endloop
 endfacet
 facet normal 0.265696 -0.964057 0
  outer loop
    vertex 2.82954 -8.55932 1
    vertex 2.89639 -8.54089 3.1078e-06
    vertex 2.89639 -8.54089 1
  endloop
 endfacet
 facet normal 0.428207 -0.903681 0
  outer loop
    vertex 2.89639 -8.54089 1
    vertex 2.89639 -8.54089 3.1078e-06
    vertex 2.95906 -8.5112 3.10249e-06
  endloop
 endfacet
 facet normal 0.428207 -0.903681 0
  outer loop
    vertex 2.89639 -8.54089 1
    vertex 2.95906 -8.5112 3.10249e-06
    vertex 2.95906 -8.5112 1
  endloop
 endfacet
 facet normal 0.577852 -0.816142 0
  outer loop
    vertex 2.95906 -8.5112 1
    vertex 2.95906 -8.5112 3.10249e-06
    vertex 3.01565 -8.47113 3.09533e-06
  endloop
 endfacet
 facet normal 0.577852 -0.816142 0
  outer loop
    vertex 2.95906 -8.5112 1
    vertex 3.01565 -8.47113 3.09533e-06
    vertex 3.01565 -8.47113 1
  endloop
 endfacet
 facet normal 0.710112 -0.704089 0
  outer loop
    vertex 3.01565 -8.47113 1
    vertex 3.01565 -8.47113 3.09533e-06
    vertex 3.06448 -8.42188 3.08652e-06
  endloop
 endfacet
 facet normal 0.710112 -0.704089 0
  outer loop
    vertex 3.01565 -8.47113 1
    vertex 3.06448 -8.42188 3.08652e-06
    vertex 3.06448 -8.42188 1
  endloop
 endfacet
 facet normal 0.821059 -0.570844 0
  outer loop
    vertex 3.06448 -8.42188 1
    vertex 3.06448 -8.42188 3.08652e-06
    vertex 3.10407 -8.36495 3.07634e-06
  endloop
 endfacet
 facet normal 0.821063 -0.570837 5.44393e-07
  outer loop
    vertex 3.06448 -8.42188 1
    vertex 3.10407 -8.36495 3.07634e-06
    vertex 3.10407 -8.36495 1
  endloop
 endfacet
 facet normal 0.907304 -0.420475 4.00996e-07
  outer loop
    vertex 3.10407 -8.36495 1
    vertex 3.10407 -8.36495 3.07634e-06
    vertex 3.13322 -8.30203 3.06509e-06
  endloop
 endfacet
 facet normal 0.907302 -0.42048 0
  outer loop
    vertex 3.10407 -8.36495 1
    vertex 3.13322 -8.30203 3.06509e-06
    vertex 3.13322 -8.30203 1
  endloop
 endfacet
 facet normal 0.966297 -0.257431 0
  outer loop
    vertex 3.13322 -8.30203 1
    vertex 3.13322 -8.30203 3.06509e-06
    vertex 3.15108 -8.23502 3.05311e-06
  endloop
 endfacet
 facet normal 0.966297 -0.257431 0
  outer loop
    vertex 3.13322 -8.30203 1
    vertex 3.15108 -8.23502 3.05311e-06
    vertex 3.15108 -8.23502 1
  endloop
 endfacet
 facet normal 0.996236 -0.0866813 0
  outer loop
    vertex 3.15108 -8.23502 1
    vertex 3.15108 -8.23502 3.05311e-06
    vertex 3.15709 -8.16594 3.04076e-06
  endloop
 endfacet
 facet normal 0.996236 -0.0866813 0
  outer loop
    vertex 3.15108 -8.23502 1
    vertex 3.15709 -8.16594 3.04076e-06
    vertex 3.15709 -8.16594 1
  endloop
 endfacet
 facet normal 1 0 0
  outer loop
    vertex 3.15709 4.25053 1
    vertex 3.15709 -8.16594 1
    vertex 3.15709 4.25053 8.20519e-07
  endloop
 endfacet
 facet normal 1 0 0
  outer loop
    vertex 3.15709 4.25053 8.20519e-07
    vertex 3.15709 -8.16594 1
    vertex 3.15709 -8.16594 3.04076e-06
  endloop
 endfacet
 facet normal 0.996609 -0.0822892 0
  outer loop
    vertex 3.15709 4.25053 1
    vertex 3.15709 4.25053 8.20519e-07
    vertex 3.16589 4.35714 8.01456e-07
  endloop
 endfacet
 facet normal 0.996608 -0.0822892 0
  outer loop
    vertex 3.15709 4.25053 1
    vertex 3.16589 4.35714 8.01456e-07
    vertex 3.16589 4.35714 1
  endloop
 endfacet
 facet normal 0.969619 -0.24462 0
  outer loop
    vertex 3.16589 4.35714 1
    vertex 3.16589 4.35714 8.01456e-07
    vertex 3.19206 4.46086 7.82909e-07
  endloop
 endfacet
 facet normal 0.969619 -0.24462 0
  outer loop
    vertex 3.16589 4.35714 1
    vertex 3.19206 4.46086 7.82909e-07
    vertex 3.19206 4.46086 1
  endloop
 endfacet
 facet normal 0.916365 -0.400344 0
  outer loop
    vertex 3.19206 4.46086 1
    vertex 3.19206 4.46086 7.82909e-07
    vertex 3.23488 4.55888 7.65382e-07
  endloop
 endfacet
 facet normal 0.916365 -0.400344 0
  outer loop
    vertex 3.19206 4.46086 1
    vertex 3.23488 4.55888 7.65382e-07
    vertex 3.23488 4.55888 1
  endloop
 endfacet
 facet normal 0.838303 -0.545205 0
  outer loop
    vertex 3.23488 4.55888 1
    vertex 3.23488 4.55888 7.65382e-07
    vertex 3.2932 4.64855 7.49347e-07
  endloop
 endfacet
 facet normal 0.838303 -0.545205 0
  outer loop
    vertex 3.23488 4.55888 1
    vertex 3.2932 4.64855 7.49347e-07
    vertex 3.2932 4.64855 1
  endloop
 endfacet
 facet normal 0.73752 -0.675326 0
  outer loop
    vertex 3.2932 4.64855 1
    vertex 3.2932 4.64855 7.49347e-07
    vertex 3.36544 4.72745 7.3524e-07
  endloop
 endfacet
 facet normal 0.73752 -0.675326 0
  outer loop
    vertex 3.2932 4.64855 1
    vertex 3.36544 4.72745 7.3524e-07
    vertex 3.36544 4.72745 1
  endloop
 endfacet
 facet normal 0.616781 -0.787135 0
  outer loop
    vertex 3.36544 4.72745 1
    vertex 3.36544 4.72745 7.3524e-07
    vertex 3.44964 4.79342 7.23442e-07
  endloop
 endfacet
 facet normal 0.616781 -0.787135 0
  outer loop
    vertex 3.36544 4.72745 1
    vertex 3.44964 4.79342 7.23442e-07
    vertex 3.44964 4.79342 1
  endloop
 endfacet
 facet normal 0.479329 -0.877635 0
  outer loop
    vertex 3.44964 4.79342 1
    vertex 3.44964 4.79342 7.23442e-07
    vertex 3.54352 4.8447 7.14273e-07
  endloop
 endfacet
 facet normal 0.479329 -0.877635 0
  outer loop
    vertex 3.44964 4.79342 1
    vertex 3.54352 4.8447 7.14273e-07
    vertex 3.54352 4.8447 1
  endloop
 endfacet
 facet normal 0.328896 -0.944366 0
  outer loop
    vertex 3.54352 4.8447 1
    vertex 3.54352 4.8447 7.14273e-07
    vertex 3.64454 4.87988 7.07983e-07
  endloop
 endfacet
 facet normal 0.328896 -0.944366 0
  outer loop
    vertex 3.54352 4.8447 1
    vertex 3.64454 4.87988 7.07983e-07
    vertex 3.64454 4.87988 1
  endloop
 endfacet
 facet normal 0.169552 -0.985521 0
  outer loop
    vertex 3.64454 4.87988 1
    vertex 3.64454 4.87988 7.07983e-07
    vertex 3.74996 4.89801 7.04739e-07
  endloop
 endfacet
 facet normal 0.169552 -0.985521 0
  outer loop
    vertex 3.64454 4.87988 1
    vertex 3.74996 4.89801 7.04739e-07
    vertex 3.74996 4.89801 1
  endloop
 endfacet
 facet normal 0.0762016 -0.997092 0
  outer loop
    vertex 5.93464 5.06498 1
    vertex 3.74996 4.89801 1
    vertex 5.93464 5.06498 6.74884e-07
  endloop
 endfacet
 facet normal 0.0762016 -0.997092 0
  outer loop
    vertex 5.93464 5.06498 6.74884e-07
    vertex 3.74996 4.89801 1
    vertex 3.74996 4.89801 7.04739e-07
  endloop
 endfacet
 facet normal 0.158637 -0.987337 0
  outer loop
    vertex 5.93464 5.06498 1
    vertex 5.93464 5.06498 6.74884e-07
    vertex 6.05747 5.08471 6.71356e-07
  endloop
 endfacet
 facet normal 0.158637 -0.987337 0
  outer loop
    vertex 5.93464 5.06498 1
    vertex 6.05747 5.08471 6.71356e-07
    vertex 6.05747 5.08471 1
  endloop
 endfacet
 facet normal 0.31965 -0.947536 0
  outer loop
    vertex 6.05747 5.08471 1
    vertex 6.05747 5.08471 6.71356e-07
    vertex 6.17534 5.12448 6.64245e-07
  endloop
 endfacet
 facet normal 0.31965 -0.947536 0
  outer loop
    vertex 6.05747 5.08471 1
    vertex 6.17534 5.12448 6.64245e-07
    vertex 6.17534 5.12448 1
  endloop
 endfacet
 facet normal 0.471877 -0.881665 0
  outer loop
    vertex 6.17534 5.12448 1
    vertex 6.17534 5.12448 6.64245e-07
    vertex 6.28502 5.18318 6.53748e-07
  endloop
 endfacet
 facet normal 0.471877 -0.881665 0
  outer loop
    vertex 6.17534 5.12448 1
    vertex 6.28502 5.18318 6.53748e-07
    vertex 6.28502 5.18318 1
  endloop
 endfacet
 facet normal 0.611117 -0.79154 0
  outer loop
    vertex 6.28502 5.18318 1
    vertex 6.28502 5.18318 6.53748e-07
    vertex 6.38349 5.2592 6.40154e-07
  endloop
 endfacet
 facet normal 0.611117 -0.79154 0
  outer loop
    vertex 6.28502 5.18318 1
    vertex 6.38349 5.2592 6.40154e-07
    vertex 6.38349 5.2592 1
  endloop
 endfacet
 facet normal 0.733558 -0.679627 0
  outer loop
    vertex 6.38349 5.2592 1
    vertex 6.38349 5.2592 6.40154e-07
    vertex 6.46803 5.35045 6.23837e-07
  endloop
 endfacet
 facet normal 0.733558 -0.679627 0
  outer loop
    vertex 6.38349 5.2592 1
    vertex 6.46803 5.35045 6.23837e-07
    vertex 6.46803 5.35045 1
  endloop
 endfacet
 facet normal 0.835798 -0.549037 0
  outer loop
    vertex 6.46803 5.35045 1
    vertex 6.46803 5.35045 6.23837e-07
    vertex 6.53633 5.45443 6.05245e-07
  endloop
 endfacet
 facet normal 0.835798 -0.549037 0
  outer loop
    vertex 6.46803 5.35045 1
    vertex 6.53633 5.45443 6.05245e-07
    vertex 6.53633 5.45443 1
  endloop
 endfacet
 facet normal 0.91506 -0.403318 0
  outer loop
    vertex 6.53633 5.45443 1
    vertex 6.53633 5.45443 6.05245e-07
    vertex 6.58651 5.56826 5.8489e-07
  endloop
 endfacet
 facet normal 0.91506 -0.403318 0
  outer loop
    vertex 6.53633 5.45443 1
    vertex 6.58651 5.56826 5.8489e-07
    vertex 6.58651 5.56826 1
  endloop
 endfacet
 facet normal 0.969137 -0.246522 0
  outer loop
    vertex 6.58651 5.56826 1
    vertex 6.58651 5.56826 5.8489e-07
    vertex 6.61717 5.68882 5.63332e-07
  endloop
 endfacet
 facet normal 0.969137 -0.246522 0
  outer loop
    vertex 6.58651 5.56826 1
    vertex 6.61717 5.68882 5.63332e-07
    vertex 6.61717 5.68882 1
  endloop
 endfacet
 facet normal 0.996555 -0.0829319 0
  outer loop
    vertex 6.61717 5.68882 1
    vertex 6.61717 5.68882 5.63332e-07
    vertex 6.62749 5.8128 5.41164e-07
  endloop
 endfacet
 facet normal 0.996555 -0.0829319 0
  outer loop
    vertex 6.61717 5.68882 1
    vertex 6.62749 5.8128 5.41164e-07
    vertex 6.62749 5.8128 1
  endloop
 endfacet
 facet normal 1 0 0
  outer loop
    vertex 6.62749 6.68695 1
    vertex 6.62749 5.8128 1
    vertex 6.62749 6.68695 3.84852e-07
  endloop
 endfacet
 facet normal 1 0 0
  outer loop
    vertex 6.62749 6.68695 3.84852e-07
    vertex 6.62749 5.8128 1
    vertex 6.62749 5.8128 5.41164e-07
  endloop
 endfacet
 facet normal 0.997202 0.0747584 -0
  outer loop
    vertex 6.62749 6.68695 1
    vertex 6.62749 6.68695 3.84852e-07
    vertex 6.61911 6.79878 3.64855e-07
  endloop
 endfacet
 facet normal 0.997202 0.0747584 -0
  outer loop
    vertex 6.62749 6.68695 1
    vertex 6.61911 6.79878 3.64855e-07
    vertex 6.61911 6.79878 1
  endloop
 endfacet
 facet normal 0.974904 0.222624 -0
  outer loop
    vertex 6.61911 6.79878 1
    vertex 6.61911 6.79878 3.64855e-07
    vertex 6.59414 6.90811 3.45305e-07
  endloop
 endfacet
 facet normal 0.974904 0.222624 -0
  outer loop
    vertex 6.61911 6.79878 1
    vertex 6.59414 6.90811 3.45305e-07
    vertex 6.59414 6.90811 1
  endloop
 endfacet
 facet normal 0.930812 0.365498 -0
  outer loop
    vertex 6.59414 6.90811 1
    vertex 6.59414 6.90811 3.45305e-07
    vertex 6.55315 7.0125 3.2664e-07
  endloop
 endfacet
 facet normal 0.930812 0.365498 -0
  outer loop
    vertex 6.59414 6.90811 1
    vertex 6.55315 7.0125 3.2664e-07
    vertex 6.55315 7.0125 1
  endloop
 endfacet
 facet normal 0.865908 0.500203 -0
  outer loop
    vertex 6.55315 7.0125 1
    vertex 6.55315 7.0125 3.2664e-07
    vertex 6.49706 7.10961 3.09275e-07
  endloop
 endfacet
 facet normal 0.865908 0.500203 -0
  outer loop
    vertex 6.55315 7.0125 1
    vertex 6.49706 7.10961 3.09275e-07
    vertex 6.49706 7.10961 1
  endloop
 endfacet
 facet normal 0.781643 0.623726 -0
  outer loop
    vertex 6.49706 7.10961 1
    vertex 6.49706 7.10961 3.09275e-07
    vertex 6.42711 7.19727 2.93601e-07
  endloop
 endfacet
 facet normal 0.781643 0.623726 -0
  outer loop
    vertex 6.49706 7.10961 1
    vertex 6.42711 7.19727 2.93601e-07
    vertex 6.42711 7.19727 1
  endloop
 endfacet
 facet normal 0.679904 0.733301 -0
  outer loop
    vertex 6.42711 7.19727 1
    vertex 6.42711 7.19727 2.93601e-07
    vertex 6.34487 7.27351 2.79967e-07
  endloop
 endfacet
 facet normal 0.679904 0.733301 -0
  outer loop
    vertex 6.42711 7.19727 1
    vertex 6.34487 7.27351 2.79967e-07
    vertex 6.34487 7.27351 1
  endloop
 endfacet
 facet normal 0.562964 0.826481 -0
  outer loop
    vertex 6.34487 7.27351 1
    vertex 6.34487 7.27351 2.79967e-07
    vertex 6.25219 7.33665 2.68678e-07
  endloop
 endfacet
 facet normal 0.562964 0.826481 -0
  outer loop
    vertex 6.34487 7.27351 1
    vertex 6.25219 7.33665 2.68678e-07
    vertex 6.25219 7.33665 1
  endloop
 endfacet
 facet normal 0.460205 0.887813 -0
  outer loop
    vertex 6.25219 7.33665 1
    vertex 6.25219 7.33665 2.68678e-07
    vertex 5.51887 7.71677 2.00707e-07
  endloop
 endfacet
 facet normal 0.460205 0.887813 -0
  outer loop
    vertex 6.25219 7.33665 1
    vertex 5.51887 7.71677 2.00707e-07
    vertex 5.51887 7.71677 1
  endloop
 endfacet
 facet normal 0.37872 0.925511 -0
  outer loop
    vertex 5.51887 7.71677 1
    vertex 5.51887 7.71677 2.00707e-07
    vertex 4.75441 8.02958 1.44771e-07
  endloop
 endfacet
 facet normal 0.37872 0.925511 -0
  outer loop
    vertex 5.51887 7.71677 1
    vertex 4.75441 8.02958 1.44771e-07
    vertex 4.75441 8.02958 1
  endloop
 endfacet
 facet normal 0.294188 0.955748 -0
  outer loop
    vertex 4.75441 8.02958 1
    vertex 4.75441 8.02958 1.44771e-07
    vertex 3.96498 8.27258 1.0132e-07
  endloop
 endfacet
 facet normal 0.294188 0.955748 -0
  outer loop
    vertex 4.75441 8.02958 1
    vertex 3.96498 8.27258 1.0132e-07
    vertex 3.96498 8.27258 1
  endloop
 endfacet
 facet normal 0.207277 0.978282 -0
  outer loop
    vertex 3.96498 8.27258 1
    vertex 3.96498 8.27258 1.0132e-07
    vertex 3.15694 8.44379 7.07057e-08
  endloop
 endfacet
 facet normal 0.207277 0.978282 -0
  outer loop
    vertex 3.96498 8.27258 1
    vertex 3.15694 8.44379 7.07057e-08
    vertex 3.15694 8.44379 1
  endloop
 endfacet
 facet normal 0.118701 0.99293 -0
  outer loop
    vertex 3.15694 8.44379 1
    vertex 3.15694 8.44379 7.07057e-08
    vertex 2.3368 8.54183 5.31738e-08
  endloop
 endfacet
 facet normal 0.118701 0.99293 -0
  outer loop
    vertex 3.15694 8.44379 1
    vertex 2.3368 8.54183 5.31738e-08
    vertex 2.3368 8.54183 1
  endloop
 endfacet
 facet normal 0.0291651 0.999575 -0
  outer loop
    vertex 2.3368 8.54183 1
    vertex 2.3368 8.54183 5.31738e-08
    vertex 1.51117 8.56592 4.88662e-08
  endloop
 endfacet
 facet normal 0.0291651 0.999575 -0
  outer loop
    vertex 2.3368 8.54183 1
    vertex 1.51117 8.56592 4.88662e-08
    vertex 1.51117 8.56592 1
  endloop
 endfacet
 facet normal -0.0606 0.998162 0
  outer loop
    vertex 1.51117 8.56592 1
    vertex 1.51117 8.56592 4.88662e-08
    vertex 0.686701 8.51587 5.78166e-08
  endloop
 endfacet
 facet normal -0.0606 0.998162 0
  outer loop
    vertex 1.51117 8.56592 1
    vertex 0.686701 8.51587 5.78166e-08
    vertex 0.686701 8.51587 1
  endloop
 endfacet
 facet normal -0.149885 0.988703 0
  outer loop
    vertex 0.686701 8.51587 1
    vertex 0.686701 8.51587 5.78166e-08
    vertex -0.129951 8.39207 7.99541e-08
  endloop
 endfacet
 facet normal -0.149885 0.988703 0
  outer loop
    vertex 0.686701 8.51587 1
    vertex -0.129951 8.39207 7.99541e-08
    vertex -0.129951 8.39207 1
  endloop
 endfacet
 facet normal -0.237955 0.971276 0
  outer loop
    vertex -0.129951 8.39207 1
    vertex -0.129951 8.39207 7.99541e-08
    vertex -0.932207 8.19552 1.151e-07
  endloop
 endfacet
 facet normal -0.237955 0.971276 0
  outer loop
    vertex -0.129951 8.39207 1
    vertex -0.932207 8.19552 1.151e-07
    vertex -0.932207 8.19552 1
  endloop
 endfacet
 facet normal -0.32411 0.946019 0
  outer loop
    vertex -0.932207 8.19552 1
    vertex -0.932207 8.19552 1.151e-07
    vertex -1.7136 7.92781 1.6297e-07
  endloop
 endfacet
 facet normal -0.32411 0.946019 0
  outer loop
    vertex -0.932207 8.19552 1
    vertex -1.7136 7.92781 1.6297e-07
    vertex -1.7136 7.92781 1
  endloop
 endfacet
 facet normal -0.407655 0.913136 0
  outer loop
    vertex -1.7136 7.92781 1
    vertex -1.7136 7.92781 1.6297e-07
    vertex -2.46784 7.59109 2.23179e-07
  endloop
 endfacet
 facet normal -0.407655 0.913136 0
  outer loop
    vertex -1.7136 7.92781 1
    vertex -2.46784 7.59109 2.23179e-07
    vertex -2.46784 7.59109 1
  endloop
 endfacet
 facet normal -0.487911 0.872894 0
  outer loop
    vertex -2.46784 7.59109 1
    vertex -2.46784 7.59109 2.23179e-07
    vertex -3.18883 7.18809 2.95242e-07
  endloop
 endfacet
 facet normal -0.487911 0.872894 0
  outer loop
    vertex -2.46784 7.59109 1
    vertex -3.18883 7.18809 2.95242e-07
    vertex -3.18883 7.18809 1
  endloop
 endfacet
 facet normal -0.564233 0.825616 0
  outer loop
    vertex -3.18883 7.18809 1
    vertex -3.18883 7.18809 2.95242e-07
    vertex -3.87077 6.72204 3.78578e-07
  endloop
 endfacet
 facet normal -0.564233 0.825616 0
  outer loop
    vertex -3.18883 7.18809 1
    vertex -3.87077 6.72204 3.78578e-07
    vertex -3.87077 6.72204 1
  endloop
 endfacet
 facet normal -0.636009 0.771681 0
  outer loop
    vertex -3.87077 6.72204 1
    vertex -3.87077 6.72204 3.78578e-07
    vertex -4.50817 6.19671 4.72515e-07
  endloop
 endfacet
 facet normal -0.636009 0.771681 0
  outer loop
    vertex -3.87077 6.72204 1
    vertex -4.50817 6.19671 4.72515e-07
    vertex -4.50817 6.19671 1
  endloop
 endfacet
 facet normal -0.702658 0.711527 0
  outer loop
    vertex -4.50817 6.19671 1
    vertex -4.50817 6.19671 4.72515e-07
    vertex -5.09588 5.61633 5.76295e-07
  endloop
 endfacet
 facet normal -0.702658 0.711527 0
  outer loop
    vertex -4.50817 6.19671 1
    vertex -5.09588 5.61633 5.76295e-07
    vertex -5.09588 5.61633 1
  endloop
 endfacet
 facet normal -0.763642 0.645639 0
  outer loop
    vertex -5.09588 5.61633 1
    vertex -5.09588 5.61633 5.76295e-07
    vertex -5.62917 4.98557 6.89083e-07
  endloop
 endfacet
 facet normal -0.763642 0.645639 0
  outer loop
    vertex -5.09588 5.61633 1
    vertex -5.62917 4.98557 6.89083e-07
    vertex -5.62917 4.98557 1
  endloop
 endfacet
 facet normal -0.818473 0.574546 0
  outer loop
    vertex -5.62917 4.98557 1
    vertex -5.62917 4.98557 6.89083e-07
    vertex -6.10373 4.30953 8.09969e-07
  endloop
 endfacet
 facet normal -0.818473 0.574545 0
  outer loop
    vertex -5.62917 4.98557 1
    vertex -6.10373 4.30953 8.09969e-07
    vertex -6.10373 4.30953 1
  endloop
 endfacet
 facet normal -0.866706 0.49882 0
  outer loop
    vertex -6.10373 4.30953 1
    vertex -6.10373 4.30953 8.09969e-07
    vertex -6.51575 3.59364 9.37979e-07
  endloop
 endfacet
 facet normal -0.866706 0.49882 0
  outer loop
    vertex -6.10373 4.30953 1
    vertex -6.51575 3.59364 9.37979e-07
    vertex -6.51575 3.59364 1
  endloop
 endfacet
 facet normal -0.921406 0.388602 0
  outer loop
    vertex -6.51575 3.59364 1
    vertex -6.51575 3.59364 9.37979e-07
    vertex -6.57648 3.44964 9.63728e-07
  endloop
 endfacet
 facet normal -0.921406 0.388602 0
  outer loop
    vertex -6.51575 3.59364 1
    vertex -6.57648 3.44964 9.63728e-07
    vertex -6.57648 3.44964 1
  endloop
 endfacet
 facet normal -0.9707 0.240295 0
  outer loop
    vertex -6.57648 3.44964 1
    vertex -6.57648 3.44964 9.63728e-07
    vertex -6.61403 3.29794 9.90855e-07
  endloop
 endfacet
 facet normal -0.9707 0.240295 0
  outer loop
    vertex -6.57648 3.44964 1
    vertex -6.61403 3.29794 9.90855e-07
    vertex -6.61403 3.29794 1
  endloop
 endfacet
 facet normal -0.996285 0.0861211 0
  outer loop
    vertex -6.61403 3.29794 1
    vertex -6.61403 3.29794 9.90855e-07
    vertex -6.62749 3.14224 1.0187e-06
  endloop
 endfacet
 facet normal -0.996285 0.0861211 0
  outer loop
    vertex -6.61403 3.29794 1
    vertex -6.62749 3.14224 1.0187e-06
    vertex -6.62749 3.14224 1
  endloop
 endfacet
 facet normal -0.997536 -0.0701576 0
  outer loop
    vertex -6.62749 3.14224 1
    vertex -6.62749 3.14224 1.0187e-06
    vertex -6.61653 2.98634 1.04657e-06
  endloop
 endfacet
 facet normal -0.997536 -0.0701576 0
  outer loop
    vertex -6.62749 3.14224 1
    vertex -6.61653 2.98634 1.04657e-06
    vertex -6.61653 2.98634 1
  endloop
 endfacet
 facet normal -0.974424 -0.224719 0
  outer loop
    vertex -6.61653 2.98634 1
    vertex -6.61653 2.98634 1.04657e-06
    vertex -6.58141 2.83406 1.0738e-06
  endloop
 endfacet
 facet normal -0.974424 -0.224719 0
  outer loop
    vertex -6.61653 2.98634 1
    vertex -6.58141 2.83406 1.0738e-06
    vertex -6.58141 2.83406 1
  endloop
 endfacet
 facet normal -0.927512 -0.373793 0
  outer loop
    vertex -6.58141 2.83406 1
    vertex -6.58141 2.83406 1.0738e-06
    vertex -6.52299 2.6891 1.09972e-06
  endloop
 endfacet
 facet normal -0.927512 -0.373793 0
  outer loop
    vertex -6.58141 2.83406 1
    vertex -6.52299 2.6891 1.09972e-06
    vertex -6.52299 2.6891 1
  endloop
 endfacet
 facet normal -0.857946 -0.51374 0
  outer loop
    vertex -6.52299 2.6891 1
    vertex -6.52299 2.6891 1.09972e-06
    vertex -6.4427 2.55502 1.1237e-06
  endloop
 endfacet
 facet normal -0.857946 -0.51374 0
  outer loop
    vertex -6.52299 2.6891 1
    vertex -6.4427 2.55502 1.1237e-06
    vertex -6.4427 2.55502 1
  endloop
 endfacet
 facet normal -0.767425 -0.641139 0
  outer loop
    vertex -6.4427 2.55502 1
    vertex -6.4427 2.55502 1.1237e-06
    vertex -6.3425 2.43509 1.14515e-06
  endloop
 endfacet
 facet normal -0.767425 -0.641139 0
  outer loop
    vertex -6.4427 2.55502 1
    vertex -6.3425 2.43509 1.14515e-06
    vertex -6.3425 2.43509 1
  endloop
 endfacet
 facet normal -0.658161 -0.752877 0
  outer loop
    vertex -6.3425 2.43509 1
    vertex -6.3425 2.43509 1.14515e-06
    vertex -6.22484 2.33223 1.16354e-06
  endloop
 endfacet
 facet normal -0.658161 -0.752877 0
  outer loop
    vertex -6.3425 2.43509 1
    vertex -6.22484 2.33223 1.16354e-06
    vertex -6.22484 2.33223 1
  endloop
 endfacet
 facet normal -0.63043 -0.776246 0
  outer loop
    vertex -6.22484 2.33223 1
    vertex -6.22484 2.33223 1.16354e-06
    vertex -5.52119 1.76076 1.26573e-06
  endloop
 endfacet
 facet normal -0.63043 -0.776246 0
  outer loop
    vertex -6.22484 2.33223 1
    vertex -5.52119 1.76076 1.26573e-06
    vertex -5.52119 1.76076 1
  endloop
 endfacet
 facet normal -0.693267 -0.72068 0
  outer loop
    vertex -5.52119 1.76076 1
    vertex -5.52119 1.76076 1.26573e-06
    vertex -4.8679 1.13232 1.3781e-06
  endloop
 endfacet
 facet normal -0.693267 -0.72068 0
  outer loop
    vertex -5.52119 1.76076 1
    vertex -4.8679 1.13232 1.3781e-06
    vertex -4.8679 1.13232 1
  endloop
 endfacet
 facet normal -0.751228 -0.660043 0
  outer loop
    vertex -4.8679 1.13232 1
    vertex -4.8679 1.13232 1.3781e-06
    vertex -4.26958 0.451345 1.49987e-06
  endloop
 endfacet
 facet normal -0.751228 -0.660043 0
  outer loop
    vertex -4.8679 1.13232 1
    vertex -4.26958 0.451345 1.49987e-06
    vertex -4.26958 0.451345 1
  endloop
 endfacet
 facet normal -0.803901 -0.594763 0
  outer loop
    vertex -4.26958 0.451345 1
    vertex -4.26958 0.451345 1.49987e-06
    vertex -3.73044 -0.277378 1.63017e-06
  endloop
 endfacet
 facet normal -0.803901 -0.594763 0
  outer loop
    vertex -4.26958 0.451345 1
    vertex -3.73044 -0.277378 1.63017e-06
    vertex -3.73044 -0.277378 1
  endloop
 endfacet
 facet normal -0.850919 -0.525297 0
  outer loop
    vertex -3.73044 -0.277378 1
    vertex -3.73044 -0.277378 1.63017e-06
    vertex -3.25427 -1.04872 1.7681e-06
  endloop
 endfacet
 facet normal -0.850919 -0.525297 0
  outer loop
    vertex -3.73044 -0.277378 1
    vertex -3.25427 -1.04872 1.7681e-06
    vertex -3.25427 -1.04872 1
  endloop
 endfacet
 facet normal -0.872202 -0.489146 0
  outer loop
    vertex -0.167912 -6.55203 1
    vertex -3.25427 -1.04872 1
    vertex -0.167912 -6.55203 2.75217e-06
  endloop
 endfacet
 facet normal -0.872202 -0.489146 -0
  outer loop
    vertex -0.167912 -6.55203 2.75217e-06
    vertex -3.25427 -1.04872 1
    vertex -3.25427 -1.04872 1.7681e-06
  endloop
 endfacet
 facet normal -0.839184 -0.543848 2.59327e-07
  outer loop
    vertex -0.167912 -6.55203 1
    vertex -0.167912 -6.55203 2.75217e-06
    vertex 0.112639 -6.98494 2.82958e-06
  endloop
 endfacet
 facet normal -0.839184 -0.543847 0
  outer loop
    vertex -0.167912 -6.55203 1
    vertex 0.112639 -6.98494 2.82958e-06
    vertex 0.112639 -6.98494 1
  endloop
 endfacet
 facet normal -0.763021 -0.646374 0
  outer loop
    vertex 0.112639 -6.98494 1
    vertex 0.112639 -6.98494 2.82958e-06
    vertex 0.446081 -7.37855 2.89996e-06
  endloop
 endfacet
 facet normal -0.763021 -0.646374 0
  outer loop
    vertex 0.112639 -6.98494 1
    vertex 0.446081 -7.37855 2.89996e-06
    vertex 0.446081 -7.37855 1
  endloop
 endfacet
 facet normal -0.674412 -0.738355 0
  outer loop
    vertex 0.446081 -7.37855 1
    vertex 0.446081 -7.37855 2.89996e-06
    vertex 0.826973 -7.72646 2.96217e-06
  endloop
 endfacet
 facet normal -0.674411 -0.738356 3.52076e-07
  outer loop
    vertex 0.446081 -7.37855 1
    vertex 0.826973 -7.72646 2.96217e-06
    vertex 0.826973 -7.72646 1
  endloop
 endfacet
 facet normal -0.574801 -0.818294 3.90193e-07
  outer loop
    vertex 0.826973 -7.72646 1
    vertex 0.826973 -7.72646 2.96217e-06
    vertex 1.2491 -8.02298 3.01519e-06
  endloop
 endfacet
 facet normal -0.574801 -0.818293 0
  outer loop
    vertex 0.826973 -7.72646 1
    vertex 1.2491 -8.02298 3.01519e-06
    vertex 1.2491 -8.02298 1
  endloop
 endfacet
 facet normal -0.465813 -0.884883 0
  outer loop
    vertex 1.2491 -8.02298 1
    vertex 1.2491 -8.02298 3.01519e-06
    vertex 1.70558 -8.26327 3.05816e-06
  endloop
 endfacet
 facet normal -0.465813 -0.884883 0
  outer loop
    vertex 1.2491 -8.02298 1
    vertex 1.70558 -8.26327 3.05816e-06
    vertex 1.70558 -8.26327 1
  endloop
 endfacet
 facet normal -0.349226 -0.937038 0
  outer loop
    vertex 1.70558 -8.26327 1
    vertex 1.70558 -8.26327 3.05816e-06
    vertex 2.18897 -8.44343 3.09038e-06
  endloop
 endfacet
 facet normal -0.349226 -0.937038 0
  outer loop
    vertex 1.70558 -8.26327 1
    vertex 2.18897 -8.44343 3.09038e-06
    vertex 2.18897 -8.44343 1
  endloop
 endfacet
 facet normal -0.226945 -0.973908 0
  outer loop
    vertex 2.18897 -8.44343 1
    vertex 2.18897 -8.44343 3.09038e-06
    vertex 2.69137 -8.5605 3.11131e-06
  endloop
 endfacet
 facet normal -0.226943 -0.973908 9.28791e-07
  outer loop
    vertex 2.18897 -8.44343 1
    vertex 2.69137 -8.5605 3.11131e-06
    vertex 2.69137 -8.5605 1
  endloop
 endfacet
 facet normal 0.0871532 -0.996195 0
  outer loop
    vertex -0.363267 2.44239 1
    vertex -0.167912 2.45948 1.14078e-06
    vertex -0.167912 2.45948 1
  endloop
 endfacet
 facet normal -0.0871534 -0.996195 0
  outer loop
    vertex -0.167912 2.45948 1
    vertex -0.167912 2.45948 1.14078e-06
    vertex 0.0274415 2.44239 1.14384e-06
  endloop
 endfacet
 facet normal -0.0871534 -0.996195 0
  outer loop
    vertex -0.167912 2.45948 1
    vertex 0.0274415 2.44239 1.14384e-06
    vertex 0.0274415 2.44239 1
  endloop
 endfacet
 facet normal -0.258823 -0.965925 0
  outer loop
    vertex 0.0274415 2.44239 1
    vertex 0.0274415 2.44239 1.14384e-06
    vertex 0.21686 2.39164 1.15291e-06
  endloop
 endfacet
 facet normal -0.258823 -0.965925 0
  outer loop
    vertex 0.0274415 2.44239 1
    vertex 0.21686 2.39164 1.15291e-06
    vertex 0.21686 2.39164 1
  endloop
 endfacet
 facet normal -0.422617 -0.906308 0
  outer loop
    vertex 0.21686 2.39164 1
    vertex 0.21686 2.39164 1.15291e-06
    vertex 0.394588 2.30876 1.16773e-06
  endloop
 endfacet
 facet normal -0.422617 -0.906308 0
  outer loop
    vertex 0.21686 2.39164 1
    vertex 0.394588 2.30876 1.16773e-06
    vertex 0.394588 2.30876 1
  endloop
 endfacet
 facet normal -0.573579 -0.81915 0
  outer loop
    vertex 0.394588 2.30876 1
    vertex 0.394588 2.30876 1.16773e-06
    vertex 0.555223 2.19628 1.18785e-06
  endloop
 endfacet
 facet normal -0.573579 -0.81915 0
  outer loop
    vertex 0.394588 2.30876 1
    vertex 0.555223 2.19628 1.18785e-06
    vertex 0.555223 2.19628 1
  endloop
 endfacet
 facet normal -0.707104 -0.707109 0
  outer loop
    vertex 0.555223 2.19628 1
    vertex 0.555223 2.19628 1.18785e-06
    vertex 0.693888 2.05762 1.21264e-06
  endloop
 endfacet
 facet normal -0.707104 -0.707109 0
  outer loop
    vertex 0.555223 2.19628 1
    vertex 0.693888 2.05762 1.21264e-06
    vertex 0.693888 2.05762 1
  endloop
 endfacet
 facet normal -0.819153 -0.573575 0
  outer loop
    vertex 0.693888 2.05762 1
    vertex 0.693888 2.05762 1.21264e-06
    vertex 0.806366 1.89698 1.24137e-06
  endloop
 endfacet
 facet normal -0.819153 -0.573575 0
  outer loop
    vertex 0.693888 2.05762 1
    vertex 0.806366 1.89698 1.24137e-06
    vertex 0.806366 1.89698 1
  endloop
 endfacet
 facet normal -0.906307 -0.42262 0
  outer loop
    vertex 0.806366 1.89698 1
    vertex 0.806366 1.89698 1.24137e-06
    vertex 0.889242 1.71925 1.27315e-06
  endloop
 endfacet
 facet normal -0.906307 -0.42262 0
  outer loop
    vertex 0.806366 1.89698 1
    vertex 0.889242 1.71925 1.27315e-06
    vertex 0.889242 1.71925 1
  endloop
 endfacet
 facet normal -0.965926 -0.258818 0
  outer loop
    vertex 0.889242 1.71925 1
    vertex 0.889242 1.71925 1.27315e-06
    vertex 0.939996 1.52984 1.30702e-06
  endloop
 endfacet
 facet normal -0.965926 -0.258818 0
  outer loop
    vertex 0.889242 1.71925 1
    vertex 0.939996 1.52984 1.30702e-06
    vertex 0.939996 1.52984 1
  endloop
 endfacet
 facet normal -0.996195 -0.0871556 0
  outer loop
    vertex 0.939996 1.52984 1
    vertex 0.939996 1.52984 1.30702e-06
    vertex 0.957088 1.33448 1.34195e-06
  endloop
 endfacet
 facet normal -0.996195 -0.0871556 0
  outer loop
    vertex 0.939996 1.52984 1
    vertex 0.957088 1.33448 1.34195e-06
    vertex 0.957088 1.33448 1
  endloop
 endfacet
 facet normal -0.996195 0.0871556 0
  outer loop
    vertex 0.957088 1.33448 1
    vertex 0.957088 1.33448 1.34195e-06
    vertex 0.939996 1.13913 1.37688e-06
  endloop
 endfacet
 facet normal -0.996195 0.0871556 0
  outer loop
    vertex 0.957088 1.33448 1
    vertex 0.939996 1.13913 1.37688e-06
    vertex 0.939996 1.13913 1
  endloop
 endfacet
 facet normal -0.965927 0.258816 0
  outer loop
    vertex 0.939996 1.13913 1
    vertex 0.939996 1.13913 1.37688e-06
    vertex 0.889242 0.949709 1.41075e-06
  endloop
 endfacet
 facet normal -0.965926 0.258816 0
  outer loop
    vertex 0.939996 1.13913 1
    vertex 0.889242 0.949709 1.41075e-06
    vertex 0.889242 0.949709 1
  endloop
 endfacet
 facet normal -0.906307 0.42262 0
  outer loop
    vertex 0.889242 0.949709 1
    vertex 0.889242 0.949709 1.41075e-06
    vertex 0.806366 0.771983 1.44253e-06
  endloop
 endfacet
 facet normal -0.906307 0.42262 0
  outer loop
    vertex 0.889242 0.949709 1
    vertex 0.806366 0.771983 1.44253e-06
    vertex 0.806366 0.771983 1
  endloop
 endfacet
 facet normal -0.819153 0.573575 0
  outer loop
    vertex 0.806366 0.771983 1
    vertex 0.806366 0.771983 1.44253e-06
    vertex 0.693888 0.611346 1.47126e-06
  endloop
 endfacet
 facet normal -0.819153 0.573575 0
  outer loop
    vertex 0.806366 0.771983 1
    vertex 0.693888 0.611346 1.47126e-06
    vertex 0.693888 0.611346 1
  endloop
 endfacet
 facet normal -0.707104 0.707109 0
  outer loop
    vertex 0.693888 0.611346 1
    vertex 0.693888 0.611346 1.47126e-06
    vertex 0.555223 0.472682 1.49605e-06
  endloop
 endfacet
 facet normal -0.707104 0.707109 0
  outer loop
    vertex 0.693888 0.611346 1
    vertex 0.555223 0.472682 1.49605e-06
    vertex 0.555223 0.472682 1
  endloop
 endfacet
 facet normal -0.573576 0.819153 0
  outer loop
    vertex 0.555223 0.472682 1
    vertex 0.555223 0.472682 1.49605e-06
    vertex 0.394588 0.360204 1.51616e-06
  endloop
 endfacet
 facet normal -0.573576 0.819153 0
  outer loop
    vertex 0.555223 0.472682 1
    vertex 0.394588 0.360204 1.51616e-06
    vertex 0.394588 0.360204 1
  endloop
 endfacet
 facet normal -0.422621 0.906307 0
  outer loop
    vertex 0.394588 0.360204 1
    vertex 0.394588 0.360204 1.51616e-06
    vertex 0.21686 0.277328 1.53098e-06
  endloop
 endfacet
 facet normal -0.422621 0.906307 0
  outer loop
    vertex 0.394588 0.360204 1
    vertex 0.21686 0.277328 1.53098e-06
    vertex 0.21686 0.277328 1
  endloop
 endfacet
 facet normal -0.258814 0.965927 0
  outer loop
    vertex 0.21686 0.277328 1
    vertex 0.21686 0.277328 1.53098e-06
    vertex 0.0274415 0.226574 1.54006e-06
  endloop
 endfacet
 facet normal -0.258814 0.965927 0
  outer loop
    vertex 0.21686 0.277328 1
    vertex 0.0274415 0.226574 1.54006e-06
    vertex 0.0274415 0.226574 1
  endloop
 endfacet
 facet normal -0.0871582 0.996195 0
  outer loop
    vertex 0.0274415 0.226574 1
    vertex 0.0274415 0.226574 1.54006e-06
    vertex -0.167912 0.209483 1.54311e-06
  endloop
 endfacet
 facet normal -0.0871582 0.996195 0
  outer loop
    vertex 0.0274415 0.226574 1
    vertex -0.167912 0.209483 1.54311e-06
    vertex -0.167912 0.209483 1
  endloop
 endfacet
 facet normal 0.087158 0.996195 -0
  outer loop
    vertex -0.167912 0.209483 1
    vertex -0.167912 0.209483 1.54311e-06
    vertex -0.363267 0.226574 1.54006e-06
  endloop
 endfacet
 facet normal 0.087158 0.996195 -0
  outer loop
    vertex -0.167912 0.209483 1
    vertex -0.363267 0.226574 1.54006e-06
    vertex -0.363267 0.226574 1
  endloop
 endfacet
 facet normal 0.258815 0.965927 -0
  outer loop
    vertex -0.363267 0.226574 1
    vertex -0.363267 0.226574 1.54006e-06
    vertex -0.552685 0.277328 1.53098e-06
  endloop
 endfacet
 facet normal 0.258815 0.965927 -0
  outer loop
    vertex -0.363267 0.226574 1
    vertex -0.552685 0.277328 1.53098e-06
    vertex -0.552685 0.277328 1
  endloop
 endfacet
 facet normal 0.422622 0.906306 -0
  outer loop
    vertex -0.552685 0.277328 1
    vertex -0.552685 0.277328 1.53098e-06
    vertex -0.730412 0.360204 1.51616e-06
  endloop
 endfacet
 facet normal 0.422622 0.906306 -0
  outer loop
    vertex -0.552685 0.277328 1
    vertex -0.730412 0.360204 1.51616e-06
    vertex -0.730412 0.360204 1
  endloop
 endfacet
 facet normal 0.573576 0.819153 -0
  outer loop
    vertex -0.730412 0.360204 1
    vertex -0.730412 0.360204 1.51616e-06
    vertex -0.891048 0.472682 1.49605e-06
  endloop
 endfacet
 facet normal 0.573576 0.819153 -0
  outer loop
    vertex -0.730412 0.360204 1
    vertex -0.891048 0.472682 1.49605e-06
    vertex -0.891048 0.472682 1
  endloop
 endfacet
 facet normal 0.707104 0.707109 -0
  outer loop
    vertex -0.891048 0.472682 1
    vertex -0.891048 0.472682 1.49605e-06
    vertex -1.02971 0.611346 1.47126e-06
  endloop
 endfacet
 facet normal 0.707104 0.707109 -0
  outer loop
    vertex -0.891048 0.472682 1
    vertex -1.02971 0.611346 1.47126e-06
    vertex -1.02971 0.611346 1
  endloop
 endfacet
 facet normal 0.819153 0.573575 -0
  outer loop
    vertex -1.02971 0.611346 1
    vertex -1.02971 0.611346 1.47126e-06
    vertex -1.14219 0.771983 1.44253e-06
  endloop
 endfacet
 facet normal 0.819153 0.573575 -0
  outer loop
    vertex -1.02971 0.611346 1
    vertex -1.14219 0.771983 1.44253e-06
    vertex -1.14219 0.771983 1
  endloop
 endfacet
 facet normal 0.906307 0.42262 -0
  outer loop
    vertex -1.14219 0.771983 1
    vertex -1.14219 0.771983 1.44253e-06
    vertex -1.22507 0.949709 1.41075e-06
  endloop
 endfacet
 facet normal 0.906307 0.42262 -0
  outer loop
    vertex -1.14219 0.771983 1
    vertex -1.22507 0.949709 1.41075e-06
    vertex -1.22507 0.949709 1
  endloop
 endfacet
 facet normal 0.965926 0.258816 -0
  outer loop
    vertex -1.22507 0.949709 1
    vertex -1.22507 0.949709 1.41075e-06
    vertex -1.27582 1.13913 1.37688e-06
  endloop
 endfacet
 facet normal 0.965927 0.258816 -0
  outer loop
    vertex -1.22507 0.949709 1
    vertex -1.27582 1.13913 1.37688e-06
    vertex -1.27582 1.13913 1
  endloop
 endfacet
 facet normal 0.996195 0.087158 -0
  outer loop
    vertex -1.27582 1.13913 1
    vertex -1.27582 1.13913 1.37688e-06
    vertex -1.29291 1.33448 1.34195e-06
  endloop
 endfacet
 facet normal 0.996195 0.087158 -0
  outer loop
    vertex -1.27582 1.13913 1
    vertex -1.29291 1.33448 1.34195e-06
    vertex -1.29291 1.33448 1
  endloop
 endfacet
 facet normal 0.996195 -0.087158 0
  outer loop
    vertex -1.29291 1.33448 1
    vertex -1.29291 1.33448 1.34195e-06
    vertex -1.27582 1.52984 1.30702e-06
  endloop
 endfacet
 facet normal 0.996195 -0.087158 0
  outer loop
    vertex -1.29291 1.33448 1
    vertex -1.27582 1.52984 1.30702e-06
    vertex -1.27582 1.52984 1
  endloop
 endfacet
 facet normal 0.965926 -0.258818 0
  outer loop
    vertex -1.27582 1.52984 1
    vertex -1.27582 1.52984 1.30702e-06
    vertex -1.22507 1.71925 1.27315e-06
  endloop
 endfacet
 facet normal 0.965926 -0.258818 0
  outer loop
    vertex -1.27582 1.52984 1
    vertex -1.22507 1.71925 1.27315e-06
    vertex -1.22507 1.71925 1
  endloop
 endfacet
 facet normal 0.906307 -0.42262 0
  outer loop
    vertex -1.22507 1.71925 1
    vertex -1.22507 1.71925 1.27315e-06
    vertex -1.14219 1.89698 1.24137e-06
  endloop
 endfacet
 facet normal 0.906307 -0.42262 0
  outer loop
    vertex -1.22507 1.71925 1
    vertex -1.14219 1.89698 1.24137e-06
    vertex -1.14219 1.89698 1
  endloop
 endfacet
 facet normal 0.819153 -0.573575 0
  outer loop
    vertex -1.14219 1.89698 1
    vertex -1.14219 1.89698 1.24137e-06
    vertex -1.02971 2.05762 1.21264e-06
  endloop
 endfacet
 facet normal 0.819153 -0.573575 0
  outer loop
    vertex -1.14219 1.89698 1
    vertex -1.02971 2.05762 1.21264e-06
    vertex -1.02971 2.05762 1
  endloop
 endfacet
 facet normal 0.707104 -0.707109 0
  outer loop
    vertex -1.02971 2.05762 1
    vertex -1.02971 2.05762 1.21264e-06
    vertex -0.891048 2.19628 1.18785e-06
  endloop
 endfacet
 facet normal 0.707104 -0.707109 0
  outer loop
    vertex -1.02971 2.05762 1
    vertex -0.891048 2.19628 1.18785e-06
    vertex -0.891048 2.19628 1
  endloop
 endfacet
 facet normal 0.573579 -0.81915 0
  outer loop
    vertex -0.891048 2.19628 1
    vertex -0.891048 2.19628 1.18785e-06
    vertex -0.730412 2.30876 1.16773e-06
  endloop
 endfacet
 facet normal 0.573579 -0.81915 0
  outer loop
    vertex -0.891048 2.19628 1
    vertex -0.730412 2.30876 1.16773e-06
    vertex -0.730412 2.30876 1
  endloop
 endfacet
 facet normal 0.422618 -0.906308 0
  outer loop
    vertex -0.730412 2.30876 1
    vertex -0.730412 2.30876 1.16773e-06
    vertex -0.552685 2.39164 1.15291e-06
  endloop
 endfacet
 facet normal 0.422618 -0.906308 0
  outer loop
    vertex -0.730412 2.30876 1
    vertex -0.552685 2.39164 1.15291e-06
    vertex -0.552685 2.39164 1
  endloop
 endfacet
 facet normal 0.258824 -0.965925 0
  outer loop
    vertex -0.552685 2.39164 1
    vertex -0.552685 2.39164 1.15291e-06
    vertex -0.363267 2.44239 1.14384e-06
  endloop
 endfacet
 facet normal 0.258824 -0.965925 0
  outer loop
    vertex -0.552685 2.39164 1
    vertex -0.363267 2.44239 1.14384e-06
    vertex -0.363267 2.44239 1
  endloop
 endfacet
 facet normal 0.0871532 -0.996195 0
  outer loop
    vertex -0.363267 2.44239 1
    vertex -0.363267 2.44239 1.14384e-06
    vertex -0.167912 2.45948 1.14078e-06
  endloop
 endfacet
endsolid solidname
